<svg width="590" height="210" viewBox="0 0 590 210" fill="none" xmlns="http://www.w3.org/2000/svg">
<rect width="590" height="210" rx="24" fill="#F9FAFB"/>
<path d="M50.84 56.22V58.32H62.24V56.22H50.84ZM55.24 47.56L54.26 49.18H59.9L60.38 47.56H55.24ZM57.74 53.88V62.2C57.74 62.46 57.64 62.52 57.36 62.52C57.04 62.54 56.04 62.54 55.08 62.5C55.38 63.16 55.68 64.14 55.76 64.82C57.26 64.82 58.32 64.78 59.06 64.4C59.84 64.04 60.02 63.38 60.02 62.24V53.88H57.74ZM55.72 46.06C54.56 47.8 52.4 49.62 50.02 50.64C50.48 50.98 51.18 51.68 51.52 52.1C53.98 50.88 56.44 48.84 58.04 46.66L55.72 46.06ZM51.8 59.52C52.62 60.4 53.5 61.64 53.84 62.46L55.82 61.28C55.42 60.46 54.46 59.3 53.64 58.46L51.8 59.52ZM54.1 49.98C55.12 50.6 56.3 51.54 56.82 52.22L58.08 51C57.52 50.32 56.3 49.44 55.28 48.88L54.1 49.98ZM51.84 51.46C52.8 52.16 53.9 53.2 54.4 53.92L55.82 52.8C55.3 52.06 54.16 51.08 53.18 50.42L51.84 51.46ZM43.6 55.94V58H48.9V55.94H43.6ZM48.02 46.02V64.8H50.24V46.02H48.02ZM44.6 56.8V57.94C44.6 59.38 44.46 61.96 43.38 63.7C43.9 63.92 44.76 64.48 45.14 64.84C46.48 62.8 46.68 59.68 46.68 58.02V56.8H44.6ZM59.54 47.56V47.9C58.22 51.36 54.6 53.66 50.68 54.6C51.08 55.02 51.62 55.8 51.86 56.32C56.24 55.06 60.12 52.62 61.82 48.18L60.36 47.48L59.96 47.56H59.54ZM44.42 46.96V53.64H49.26V51.5H46.48V46.96H44.42ZM75.74 49.68V51.88H82.38V49.68H75.74ZM75.94 46C75.52 49.6 74.7 53.08 73.16 55.24C73.66 55.64 74.54 56.54 74.86 56.98C76.62 54.46 77.66 50.46 78.24 46.34L75.94 46ZM79.18 50.96C78.68 56.74 77.26 60.74 73.3 62.92C73.7 63.38 74.38 64.38 74.58 64.88C79.02 62.18 80.7 57.76 81.4 51.14L79.18 50.96ZM77 51.52L74.96 51.8C75.78 57.72 77.28 62.42 80.92 64.84C81.26 64.26 81.98 63.36 82.5 62.94C79.16 60.96 77.68 56.58 77 51.52ZM68 46.02V56.7H70.06V46.02H68ZM66.84 48.52H71.32V51.42H66.84V48.52ZM64.88 47V52.94H73.4V47H64.88ZM66.44 55.02H71.72V55.84H66.44V55.02ZM64.46 53.56V57.28H73.8V53.56H64.46ZM63.66 58.12L63.72 59.88C66.52 59.84 70.7 59.78 74.66 59.68L74.72 58C70.72 58.06 66.46 58.12 63.66 58.12ZM67.52 56.86C66.74 58.4 65.6 60.38 64.76 61.64L66.7 62.12C67.5 60.86 68.64 58.94 69.5 57.32L67.52 56.86ZM66.3 61.64C68.54 62.46 70.86 63.64 72.18 64.58L73.66 63.12C72.22 62.2 69.74 61.04 67.44 60.26L66.3 61.64ZM70.94 58.96C70.18 61.7 68.16 62.68 64.12 63.04C64.46 63.5 64.84 64.26 64.96 64.88C69.72 64.1 72.12 62.74 72.94 59.18L70.94 58.96ZM63.6 49.1V50.82H65.62V50.68H72.42V50.82H74.72V49.1H72.42V49.24H65.62V49.1H63.6ZM94.6 46.28V50.98H97.02V46.28H94.6ZM89.88 49.64V51.9H102.06V49.64H89.88ZM91.26 53.2C91.9 55.78 92.4 59.1 92.48 61.06L94.84 60.56C94.72 58.6 94.1 55.36 93.42 52.82L91.26 53.2ZM98.02 52.7C97.64 55.62 96.8 59.52 96 61.98L98.16 62.44C98.98 60.08 99.96 56.36 100.62 53.12L98.02 52.7ZM89.46 61.68V63.96H102.46V61.68H89.46ZM88.08 46.06C87 48.9 85.14 51.72 83.24 53.48C83.64 54.08 84.3 55.4 84.5 55.98C86.76 53.74 88.98 50.18 90.34 46.8L88.08 46.06ZM86.16 51.6V64.74H88.44V49.34L88.42 49.32L86.16 51.6ZM113.5 55.48V64.78H115.68V57.64H119.4V64.7H121.68V55.48H113.5ZM116.16 46.04V56.06H118.5V46.04H116.16ZM117.56 50.16V52.38H122.38V50.16H117.56ZM114.64 61.84V64.02H120.46V61.84H114.64ZM106.1 48.24H110.96V52.6H106.1V48.24ZM104.32 46.62V54.22H112.82V46.62H104.32ZM106.06 49.1C106.36 50.02 106.6 51.22 106.64 52.02L107.68 51.68C107.62 50.92 107.36 49.72 107.04 48.8L106.06 49.1ZM106.54 60.56C106.76 61.68 106.92 63.12 106.88 64.08L108.42 63.9C108.42 62.94 108.26 61.5 108 60.38L106.54 60.56ZM108.54 60.48C108.92 61.54 109.28 62.94 109.36 63.84L110.84 63.52C110.74 62.62 110.36 61.26 109.96 60.22L108.54 60.48ZM110.5 60.3C111.1 61.3 111.72 62.64 111.96 63.52L113.46 62.9C113.22 62.02 112.58 60.74 111.92 59.78L110.5 60.3ZM104.8 60.44C104.6 61.76 104.16 63.16 103.42 64L104.98 64.8C105.8 63.88 106.16 62.36 106.4 60.92L104.8 60.44ZM109.98 48.78C109.82 49.62 109.46 50.9 109.18 51.72L110.06 52.04C110.4 51.32 110.8 50.16 111.18 49.2L109.98 48.78ZM103.84 57.96L103.92 59.98C106.36 59.86 109.78 59.7 113.04 59.5L113.1 57.64C109.72 57.78 106.18 57.9 103.84 57.96ZM104.34 55.08V56.9H112.76V55.08H104.34ZM107.76 47.44V53.48H107.44V58.7H109.54V53.48H109.22V47.44H107.76ZM132.16 47.36V49.12H142.08V47.36H132.16ZM131.98 58.72V60.48H142.36V58.72H131.98ZM136.02 46.02V56.82H138.06V46.02H136.02ZM134.38 53.16H139.74V53.94H134.38V53.16ZM134.38 51.14H139.74V51.92H134.38V51.14ZM132.5 49.84V55.24H141.72V49.84H132.5ZM131.96 56.2L132.1 57.9C134.46 57.84 137.78 57.78 140.98 57.66L141.02 56.04C137.68 56.12 134.26 56.18 131.96 56.2ZM137.88 57.92V62.66C137.88 62.88 137.8 62.94 137.52 62.96C137.26 62.98 136.26 62.98 135.4 62.94C135.66 63.48 135.96 64.26 136.04 64.86C137.42 64.86 138.4 64.86 139.16 64.56C139.9 64.26 140.08 63.74 140.08 62.72V57.92H137.88ZM132.92 61.04C133.62 61.76 134.32 62.8 134.62 63.5L136.34 62.42C136 61.72 135.26 60.78 134.52 60.1L132.92 61.04ZM138.84 55.5C139.62 56.38 140.46 57.6 140.8 58.4L142.48 57.56C142.08 56.76 141.24 55.62 140.44 54.78L138.84 55.5ZM123.84 47.94V50H131.76V47.94H123.84ZM123.54 59.54V61.62H132.02V59.54H123.54ZM126.78 46.04V51.86H128.92V46.04H126.78ZM127.06 51.9V57.46H126.78V64.8H128.92V57.46H128.64V51.9H127.06ZM125.92 55.48H129.84V56.68H125.92V55.48ZM125.92 52.74H129.84V53.9H125.92V52.74ZM124.22 51.08V58.34H131.58V51.08H124.22ZM152.94 45.98C152.38 47.6 151.2 49.38 149.26 50.68C149.76 50.98 150.5 51.66 150.84 52.16C153.04 50.52 154.3 48.48 155.16 46.32L152.94 45.98ZM153.5 47.44L152.4 49.28H157.42V47.44H153.5ZM153.82 52.08C153.76 53.46 153.46 54.38 152.18 54.94C152.54 55.22 153 55.8 153.2 56.22C154.96 55.38 155.38 54.02 155.52 52.08H153.82ZM156.28 52.16V53.8C156.28 55.26 156.58 55.68 158.06 55.68C158.34 55.68 159.08 55.68 159.36 55.68C160.28 55.68 160.76 55.4 160.94 54.52C160.46 54.44 159.78 54.2 159.46 53.96C159.42 54.14 159.34 54.2 159.1 54.2C158.96 54.2 158.46 54.2 158.34 54.2C158.04 54.2 158.02 54.16 158.02 53.8V52.16H156.28ZM149.68 58V59.98H162.14V58H149.68ZM157.12 58.66L155.04 58.88C155.94 62.12 157.56 64 161.1 64.74C161.38 64.14 161.96 63.2 162.46 62.76C159.42 62.3 157.82 60.94 157.12 58.66ZM152.56 50.72H150.56V57.38H152.56V52.6H159.96V50.72H152.56ZM159.44 50.72V57.34H161.48V50.72H159.44ZM156.64 47.44V47.84C156.34 48.72 155.68 50.16 155.08 51.06C155.56 51.3 156.26 51.74 156.7 52.06C157.44 51.08 158.4 49.54 158.98 48.32L157.46 47.36L157.12 47.44H156.64ZM154.78 56.36C154.54 60.02 153.98 62 148.78 63C149.22 63.44 149.76 64.3 149.96 64.86C155.76 63.52 156.66 60.88 156.96 56.36H154.78ZM143.4 56.08L143.94 58.38C145.7 57.88 147.9 57.24 149.96 56.6L149.64 54.44C147.38 55.08 145 55.72 143.4 56.08ZM143.72 49.82V52.02H149.84V49.82H143.72ZM145.84 46.04V62.26C145.84 62.54 145.74 62.6 145.5 62.6C145.26 62.62 144.56 62.62 143.84 62.58C144.12 63.24 144.4 64.22 144.46 64.82C145.76 64.82 146.62 64.74 147.22 64.36C147.84 64 148.04 63.38 148.04 62.26V46.04H145.84ZM166.92 56.58V58.64H180.48V56.58H166.92ZM164.22 49.28V51.44H177.46V49.28H164.22ZM170.12 52.96V55.02H179.2V52.96H170.12ZM179.56 56.58V56.92C179.3 60.56 178.96 62.08 178.56 62.48C178.36 62.66 178.16 62.7 177.82 62.7C177.42 62.72 176.58 62.7 175.7 62.6C176.08 63.2 176.36 64.14 176.38 64.8C177.42 64.82 178.38 64.82 178.94 64.76C179.6 64.68 180.08 64.5 180.56 63.98C181.2 63.3 181.56 61.56 181.88 57.5C181.92 57.2 181.96 56.58 181.96 56.58H179.56ZM175.3 59.34C175.8 60.18 176.32 61.34 176.5 62.06L178.24 61.42C178.04 60.7 177.5 59.58 176.96 58.76L175.3 59.34ZM166.46 46.86C167.16 47.68 167.96 48.84 168.28 49.58L170.58 48.64C170.18 47.88 169.32 46.78 168.62 46.02L166.46 46.86ZM169.26 59.88C169.58 61.2 169.78 62.92 169.72 64.02L171.78 63.74C171.78 62.62 171.58 60.94 171.2 59.64L169.26 59.88ZM172.28 59.72C172.72 60.86 173.14 62.36 173.26 63.34L175.2 62.84C175.04 61.88 174.6 60.42 174.12 59.3L172.28 59.72ZM166.6 59.22C166.26 60.78 165.56 62.4 164.56 63.4L166.4 64.72C167.58 63.48 168.2 61.6 168.6 59.88L166.6 59.22ZM172.62 46C171.28 51.06 168.38 56.12 163.28 58.68C163.68 59.2 164.28 60.16 164.56 60.76C170.24 57.7 173.3 52.32 175.08 46.58L172.62 46ZM177 49.28C176.78 50.62 176.42 52.28 176.12 53.38L178.2 53.7C178.54 52.54 178.92 50.78 179.2 49.28H177ZM178.3 52.96C178.1 54.28 177.76 55.9 177.44 57.02L179.54 57.3C179.86 56.16 180.22 54.42 180.5 52.96H178.3ZM194.179 53.0994C194.061 52.7159 193.897 52.3726 193.689 52.0696C193.485 51.7618 193.239 51.4991 192.95 51.2812C192.666 51.0634 192.339 50.9001 191.97 50.7912C191.601 50.6776 191.198 50.6207 190.763 50.6207C189.982 50.6207 189.286 50.8172 188.675 51.2102C188.064 51.6032 187.583 52.1809 187.233 52.9432C186.887 53.7008 186.714 54.6241 186.714 55.7131C186.714 56.8116 186.887 57.742 187.233 58.5043C187.579 59.2666 188.059 59.8466 188.675 60.2443C189.29 60.6373 190.005 60.8338 190.82 60.8338C191.558 60.8338 192.197 60.6918 192.737 60.4077C193.282 60.1236 193.701 59.7211 193.994 59.2003C194.288 58.6747 194.435 58.0592 194.435 57.3537L195.031 57.446H191.082V55.3864H196.984V57.1335C196.984 58.3788 196.719 59.456 196.189 60.3651C195.659 61.2741 194.929 61.9749 194.001 62.4673C193.073 62.955 192.008 63.1989 190.805 63.1989C189.465 63.1989 188.289 62.8982 187.276 62.2969C186.267 61.6908 185.479 60.8314 184.911 59.7188C184.347 58.6013 184.065 57.2756 184.065 55.7415C184.065 54.5672 184.231 53.5185 184.562 52.5952C184.899 51.6719 185.367 50.8883 185.969 50.2443C186.57 49.5956 187.276 49.1032 188.085 48.767C188.895 48.4261 189.776 48.2557 190.727 48.2557C191.532 48.2557 192.283 48.3741 192.979 48.6108C193.675 48.8428 194.293 49.1742 194.832 49.6051C195.377 50.036 195.824 50.5473 196.175 51.1392C196.525 51.7311 196.755 52.3845 196.864 53.0994H194.179ZM200.951 63H198.138L203.259 48.4545H206.512L211.64 63H208.827L204.942 51.4375H204.829L200.951 63ZM201.043 57.2969H208.714V59.4134H201.043V57.2969ZM221.226 52.4531C221.16 51.8329 220.881 51.3499 220.388 51.0043C219.9 50.6586 219.266 50.4858 218.485 50.4858C217.935 50.4858 217.464 50.5687 217.071 50.7344C216.678 50.9001 216.378 51.125 216.169 51.4091C215.961 51.6932 215.855 52.0175 215.85 52.3821C215.85 52.6851 215.918 52.9479 216.056 53.1705C216.198 53.393 216.39 53.5824 216.631 53.7386C216.873 53.8902 217.14 54.018 217.434 54.1222C217.727 54.2263 218.023 54.3139 218.321 54.3849L219.685 54.7259C220.234 54.8537 220.762 55.0265 221.269 55.2443C221.78 55.4621 222.237 55.7367 222.64 56.0682C223.047 56.3996 223.369 56.7997 223.605 57.2685C223.842 57.7372 223.961 58.2865 223.961 58.9162C223.961 59.7685 223.743 60.5189 223.307 61.1676C222.872 61.8116 222.242 62.3158 221.418 62.6804C220.599 63.0402 219.607 63.2202 218.442 63.2202C217.31 63.2202 216.328 63.045 215.495 62.6946C214.666 62.3442 214.017 61.8329 213.549 61.1605C213.085 60.4882 212.834 59.669 212.796 58.7031H215.388C215.426 59.2098 215.582 59.6312 215.857 59.9673C216.132 60.3035 216.489 60.5545 216.929 60.7202C217.374 60.8859 217.872 60.9688 218.421 60.9688C218.994 60.9688 219.496 60.8835 219.926 60.7131C220.362 60.5379 220.703 60.2964 220.949 59.9886C221.195 59.6761 221.321 59.3116 221.326 58.8949C221.321 58.5161 221.21 58.2036 220.992 57.9574C220.774 57.7064 220.469 57.4981 220.076 57.3324C219.687 57.1619 219.233 57.0104 218.712 56.8778L217.057 56.4517C215.859 56.1439 214.912 55.6776 214.216 55.0526C213.525 54.4228 213.179 53.5871 213.179 52.5455C213.179 51.6884 213.411 50.938 213.875 50.294C214.344 49.6501 214.981 49.1506 215.786 48.7955C216.591 48.4356 217.502 48.2557 218.52 48.2557C219.552 48.2557 220.457 48.4356 221.233 48.7955C222.015 49.1506 222.628 49.6454 223.073 50.2798C223.518 50.9096 223.748 51.634 223.762 52.4531H221.226ZM226.31 63V48.4545H228.945V54.6122H235.685V48.4545H238.327V63H235.685V56.821H228.945V63H226.31Z" fill="#344054"/>
<g clip-path="url(#clip0_1246_7744)">
<path d="M252.25 52.25H253.75V53.75H252.25V52.25ZM252.25 55.25H253.75V59.75H252.25V55.25ZM253 48.5C248.86 48.5 245.5 51.86 245.5 56C245.5 60.14 248.86 63.5 253 63.5C257.14 63.5 260.5 60.14 260.5 56C260.5 51.86 257.14 48.5 253 48.5ZM253 62C249.693 62 247 59.3075 247 56C247 52.6925 249.693 50 253 50C256.307 50 259 52.6925 259 56C259 59.3075 256.307 62 253 62Z" fill="#898989"/>
</g>
<path d="M50.0046 106.09C49.9549 105.625 49.7454 105.262 49.3761 105.003C49.0103 104.744 48.5344 104.614 47.9485 104.614C47.5366 104.614 47.1832 104.676 46.8885 104.801C46.5938 104.925 46.3683 105.094 46.212 105.307C46.0558 105.52 45.9759 105.763 45.9723 106.037C45.9723 106.264 46.0238 106.461 46.1268 106.628C46.2333 106.795 46.3771 106.937 46.5582 107.054C46.7393 107.168 46.94 107.263 47.1602 107.342C47.3803 107.42 47.6023 107.485 47.826 107.539L48.8487 107.794C49.2607 107.89 49.6566 108.02 50.0366 108.183C50.4201 108.347 50.7628 108.553 51.0646 108.801C51.37 109.05 51.6115 109.35 51.7891 109.701C51.9666 110.053 52.0554 110.465 52.0554 110.937C52.0554 111.576 51.892 112.139 51.5653 112.626C51.2386 113.109 50.7663 113.487 50.1484 113.76C49.5341 114.03 48.7901 114.165 47.9165 114.165C47.0678 114.165 46.331 114.034 45.706 113.771C45.0845 113.508 44.598 113.125 44.2464 112.62C43.8984 112.116 43.7102 111.502 43.6818 110.777H45.6261C45.6545 111.157 45.7717 111.473 45.9776 111.725C46.1836 111.978 46.4517 112.166 46.782 112.29C47.1158 112.414 47.4886 112.477 47.9006 112.477C48.3303 112.477 48.7067 112.413 49.0298 112.285C49.3565 112.153 49.6122 111.972 49.7969 111.741C49.9815 111.507 50.0756 111.234 50.0792 110.921C50.0756 110.637 49.9922 110.403 49.8288 110.218C49.6655 110.03 49.4364 109.874 49.1417 109.749C48.8505 109.621 48.5096 109.508 48.119 109.408L46.8778 109.089C45.9794 108.858 45.2692 108.508 44.7472 108.039C44.2287 107.567 43.9695 106.94 43.9695 106.159C43.9695 105.516 44.1435 104.953 44.4915 104.471C44.843 103.988 45.3207 103.613 45.9244 103.347C46.5281 103.077 47.2116 102.942 47.9751 102.942C48.7493 102.942 49.4276 103.077 50.0099 103.347C50.5959 103.613 51.0558 103.984 51.3896 104.46C51.7234 104.932 51.8956 105.475 51.9062 106.09H50.0046ZM53.3378 104.748V103.091H62.0416V104.748H58.6698V114H56.7096V104.748H53.3378ZM63.7195 114V103.091H70.8147V104.748H65.6958V107.709H70.4472V109.366H65.6958V112.343H70.8573V114H63.7195ZM72.8309 114V103.091H76.9218C77.7599 103.091 78.463 103.247 79.0312 103.56C79.6029 103.872 80.0344 104.302 80.3256 104.849C80.6203 105.392 80.7677 106.01 80.7677 106.702C80.7677 107.402 80.6203 108.023 80.3256 108.567C80.0308 109.11 79.5958 109.538 79.0205 109.85C78.4452 110.159 77.7368 110.314 76.8952 110.314H74.1839V108.689H76.6288C77.1189 108.689 77.5202 108.604 77.8327 108.434C78.1452 108.263 78.376 108.029 78.5251 107.73C78.6778 107.432 78.7542 107.089 78.7542 106.702C78.7542 106.315 78.6778 105.974 78.5251 105.68C78.376 105.385 78.1434 105.156 77.8273 104.993C77.5148 104.826 77.1118 104.742 76.6182 104.742H74.8071V114H72.8309ZM90.5355 103.091V114H88.5593V105.014H88.4954L85.9439 106.644V104.833L88.6552 103.091H90.5355ZM93.914 114.117C93.5908 114.117 93.3138 114.004 93.083 113.776C92.8522 113.549 92.7385 113.272 92.7421 112.945C92.7385 112.626 92.8522 112.352 93.083 112.125C93.3138 111.898 93.5908 111.784 93.914 111.784C94.2265 111.784 94.4981 111.898 94.729 112.125C94.9633 112.352 95.0823 112.626 95.0858 112.945C95.0823 113.162 95.0255 113.359 94.9154 113.537C94.8089 113.714 94.6668 113.856 94.4893 113.963C94.3153 114.066 94.1235 114.117 93.914 114.117ZM103.25 107.115H100.01V108.78H101.57V112.635H103.25V107.115ZM103.25 111.945H101.75C101.12 112.5 100.4 113.07 99.7997 113.49L100.655 115.215C101.36 114.54 101.96 113.97 102.53 113.37C103.43 114.54 104.66 114.99 106.49 115.065C108.365 115.14 111.695 115.11 113.615 115.02C113.69 114.525 113.96 113.73 114.155 113.34C112.025 113.505 108.335 113.55 106.475 113.475C104.93 113.4 103.835 112.965 103.25 111.945ZM99.9197 102.51C100.685 103.275 101.585 104.37 101.93 105.09L103.46 104.085C103.055 103.35 102.125 102.33 101.33 101.61L99.9197 102.51ZM104.165 107.4V108.705H113.36V107.4H104.165ZM103.715 109.71V111.045H113.825V109.71H103.715ZM106.16 106.605V110.355H107.855V106.605H106.16ZM109.595 106.605V110.355H111.305V106.605H109.595ZM104.57 103.485V104.625H108.275V101.73H103.91V102.855H106.76V103.485H104.57ZM104.12 103.485V104.955C104.12 106.155 104.495 106.5 105.83 106.5C106.115 106.5 107.12 106.5 107.405 106.5C108.32 106.5 108.725 106.215 108.875 105.195C108.47 105.12 107.9 104.925 107.63 104.73C107.57 105.225 107.51 105.315 107.21 105.315C106.985 105.315 106.22 105.315 106.055 105.315C105.665 105.315 105.605 105.255 105.605 104.94V103.485H104.12ZM109.505 103.485V104.625H113.24V101.73H108.785V102.855H111.71V103.485H109.505ZM109.055 103.485V104.94C109.055 106.155 109.43 106.5 110.78 106.5C111.065 106.5 112.115 106.5 112.4 106.5C113.33 106.5 113.735 106.215 113.885 105.18C113.48 105.09 112.91 104.91 112.64 104.715C112.58 105.225 112.52 105.315 112.205 105.315C111.98 105.315 111.185 105.315 111.005 105.315C110.615 105.315 110.54 105.255 110.54 104.94V103.485H109.055ZM109.34 111.675C110.33 112.185 111.395 112.86 111.95 113.34L113.81 112.665C113.06 112.155 111.74 111.435 110.66 110.94L109.34 111.675ZM106.715 110.94C106.07 111.45 104.96 111.93 103.91 112.245C104.285 112.485 104.93 113.025 105.215 113.325C106.25 112.905 107.51 112.215 108.29 111.495L106.715 110.94ZM126.14 102.99H127.07V103.98H126.14V102.99ZM123.86 102.99H124.775V103.98H123.86V102.99ZM121.625 102.99H122.495V103.98H121.625V102.99ZM120.23 101.805V105.165H128.54V101.805H120.23ZM120.41 105.765V107.04H128.315V105.765H120.41ZM119.66 107.73V109.08H128.975V107.73H119.66ZM119.795 110.205V111.54H128.81V110.205H119.795ZM120.185 112.23V113.535H128.45V112.23H120.185ZM123.395 104.85V108.33H125.105V104.85H123.395ZM123.395 110.865V115.425H125.105V110.865H123.395ZM121.43 109.17C121.595 109.59 121.76 110.145 121.82 110.49L123.35 110.13C123.275 109.785 123.065 109.26 122.9 108.87L121.43 109.17ZM125.825 108.66C125.705 109.095 125.465 109.725 125.255 110.175L126.59 110.535C126.83 110.16 127.145 109.62 127.475 109.05L125.825 108.66ZM114.77 108.81L115.175 110.535C116.495 110.16 118.145 109.68 119.69 109.2L119.45 107.58C117.755 108.06 115.97 108.54 114.77 108.81ZM115.01 104.115V105.765H119.6V104.115H115.01ZM116.6 101.28V113.445C116.6 113.655 116.525 113.7 116.345 113.7C116.165 113.715 115.64 113.715 115.1 113.685C115.31 114.18 115.52 114.915 115.565 115.365C116.54 115.365 117.185 115.305 117.635 115.02C118.1 114.75 118.25 114.285 118.25 113.445V101.28H116.6ZM136.34 102.27V103.59H143.78V102.27H136.34ZM136.205 110.79V112.11H143.99V110.79H136.205ZM139.235 101.265V109.365H140.765V101.265H139.235ZM138.005 106.62H142.025V107.205H138.005V106.62ZM138.005 105.105H142.025V105.69H138.005V105.105ZM136.595 104.13V108.18H143.51V104.13H136.595ZM136.19 108.9L136.295 110.175C138.065 110.13 140.555 110.085 142.955 109.995L142.985 108.78C140.48 108.84 137.915 108.885 136.19 108.9ZM140.63 110.19V113.745C140.63 113.91 140.57 113.955 140.36 113.97C140.165 113.985 139.415 113.985 138.77 113.955C138.965 114.36 139.19 114.945 139.25 115.395C140.285 115.395 141.02 115.395 141.59 115.17C142.145 114.945 142.28 114.555 142.28 113.79V110.19H140.63ZM136.91 112.53C137.435 113.07 137.96 113.85 138.185 114.375L139.475 113.565C139.22 113.04 138.665 112.335 138.11 111.825L136.91 112.53ZM141.35 108.375C141.935 109.035 142.565 109.95 142.82 110.55L144.08 109.92C143.78 109.32 143.15 108.465 142.55 107.835L141.35 108.375ZM130.1 102.705V104.25H136.04V102.705H130.1ZM129.875 111.405V112.965H136.235V111.405H129.875ZM132.305 101.28V105.645H133.91V101.28H132.305ZM132.515 105.675V109.845H132.305V115.35H133.91V109.845H133.7V105.675H132.515ZM131.66 108.36H134.6V109.26H131.66V108.36ZM131.66 106.305H134.6V107.175H131.66V106.305ZM130.385 105.06V110.505H135.905V105.06H130.385ZM151.925 101.235C151.505 102.45 150.62 103.785 149.165 104.76C149.54 104.985 150.095 105.495 150.35 105.87C152 104.64 152.945 103.11 153.59 101.49L151.925 101.235ZM152.345 102.33L151.52 103.71H155.285V102.33H152.345ZM152.585 105.81C152.54 106.845 152.315 107.535 151.355 107.955C151.625 108.165 151.97 108.6 152.12 108.915C153.44 108.285 153.755 107.265 153.86 105.81H152.585ZM154.43 105.87V107.1C154.43 108.195 154.655 108.51 155.765 108.51C155.975 108.51 156.53 108.51 156.74 108.51C157.43 108.51 157.79 108.3 157.925 107.64C157.565 107.58 157.055 107.4 156.815 107.22C156.785 107.355 156.725 107.4 156.545 107.4C156.44 107.4 156.065 107.4 155.975 107.4C155.75 107.4 155.735 107.37 155.735 107.1V105.87H154.43ZM149.48 110.25V111.735H158.825V110.25H149.48ZM155.06 110.745L153.5 110.91C154.175 113.34 155.39 114.75 158.045 115.305C158.255 114.855 158.69 114.15 159.065 113.82C156.785 113.475 155.585 112.455 155.06 110.745ZM151.64 104.79H150.14V109.785H151.64V106.2H157.19V104.79H151.64ZM156.8 104.79V109.755H158.33V104.79H156.8ZM154.7 102.33V102.63C154.475 103.29 153.98 104.37 153.53 105.045C153.89 105.225 154.415 105.555 154.745 105.795C155.3 105.06 156.02 103.905 156.455 102.99L155.315 102.27L155.06 102.33H154.7ZM153.305 109.02C153.125 111.765 152.705 113.25 148.805 114C149.135 114.33 149.54 114.975 149.69 115.395C154.04 114.39 154.715 112.41 154.94 109.02H153.305ZM144.77 108.81L145.175 110.535C146.495 110.16 148.145 109.68 149.69 109.2L149.45 107.58C147.755 108.06 145.97 108.54 144.77 108.81ZM145.01 104.115V105.765H149.6V104.115H145.01ZM146.6 101.28V113.445C146.6 113.655 146.525 113.7 146.345 113.7C146.165 113.715 145.64 113.715 145.1 113.685C145.31 114.18 145.52 114.915 145.565 115.365C146.54 115.365 147.185 115.305 147.635 115.02C148.1 114.75 148.25 114.285 148.25 113.445V101.28H146.6ZM160.16 103.665V105.39H173.765V103.665H160.16ZM165.17 107.34V109.05H170.915V107.34H165.17ZM170.255 107.34L170.24 107.625C170.03 111.33 169.745 113.04 169.295 113.43C169.1 113.595 168.89 113.61 168.56 113.61C168.125 113.61 167.06 113.61 166.025 113.52C166.37 114.015 166.64 114.765 166.67 115.29C167.675 115.32 168.68 115.335 169.25 115.29C169.94 115.215 170.42 115.065 170.87 114.585C171.47 113.925 171.785 112.23 172.055 108.12C172.1 107.88 172.115 107.34 172.115 107.34H170.255ZM164.495 104.685C164.345 108.105 164.255 111.915 159.89 113.94C160.37 114.315 160.91 114.975 161.18 115.455C165.89 113.085 166.295 108.705 166.52 104.685H164.495ZM165.95 101.19V104.34H167.81V101.19H165.95ZM185.165 102.255C185.855 102.75 186.695 103.5 187.085 104.01L188.345 102.93C187.925 102.435 187.04 101.73 186.365 101.265L185.165 102.255ZM175.235 103.815V105.57H188.735V103.815H175.235ZM175.79 107.295V109.035H182.285V107.295H175.79ZM178.07 108.285V113.37H179.87V108.285H178.07ZM175.22 113.115L175.73 114.93C177.68 114.525 180.335 113.97 182.81 113.43L182.675 111.825C179.975 112.335 177.035 112.845 175.22 113.115ZM182.6 101.325C182.615 108.27 183.56 115.365 186.815 115.365C188.24 115.365 188.855 114.66 189.125 111.795C188.615 111.615 187.955 111.18 187.55 110.76C187.46 112.65 187.295 113.475 186.965 113.475C185.54 113.475 184.4 107.49 184.535 101.325H182.6Z" fill="#344054"/>
<rect x="43" y="131" width="84" height="37" rx="18.5" fill="#344054"/>
<path d="M65.747 144.627V146.148H70.18V144.627H65.747ZM59.546 143.691V145.134H66.111V143.691H59.546ZM61.262 146.382V147.773H64.395V146.382H61.262ZM61.262 149.086V150.477H64.395V149.086H61.262ZM69.751 144.627V144.965C69.322 149.255 67.723 152.453 65.136 153.805C65.487 154.104 65.929 154.689 66.163 155.092C69.101 153.298 70.804 150.1 71.311 144.835L70.297 144.588L70.024 144.627H69.751ZM67.268 146.187L65.773 146.473C66.592 150.399 67.983 153.441 70.713 155.092C70.96 154.689 71.441 154.091 71.792 153.792C69.296 152.44 67.905 149.567 67.268 146.187ZM60.443 144.289V152.791H61.925V144.289H60.443ZM63.784 144.289V155.17H65.292V144.289H63.784ZM59.247 152.219L59.533 153.766C60.898 153.558 62.705 153.272 64.395 152.973L64.304 151.556C62.471 151.816 60.534 152.076 59.247 152.219ZM78.76 146.109H82.153V146.772H78.76V146.109ZM78.76 144.432H82.153V145.082H78.76V144.432ZM77.252 143.34V147.864H83.726V143.34H77.252ZM76.602 148.436V149.71H84.155V148.436H76.602ZM76.264 150.451V151.777H84.415V150.451H76.264ZM81.061 149.554V153.584C81.061 153.74 81.009 153.779 80.814 153.792C80.645 153.805 80.034 153.805 79.488 153.779C79.683 154.169 79.904 154.741 79.969 155.17C80.866 155.17 81.516 155.157 81.997 154.936C82.504 154.715 82.634 154.338 82.634 153.623V149.554H81.061ZM77.135 152.414C77.668 152.973 78.344 153.74 78.63 154.234L79.8 153.402C79.462 152.921 78.773 152.193 78.214 151.686L77.135 152.414ZM75.354 145.836C74.574 147.097 73.3 148.384 72.156 149.19C72.39 149.567 72.78 150.451 72.884 150.789C74.249 149.723 75.77 148.007 76.719 146.408L75.354 145.836ZM75.003 142.976C74.457 143.847 73.3 144.913 72.286 145.537C72.533 145.862 72.897 146.499 73.066 146.85C74.288 146.057 75.614 144.783 76.485 143.574L75.003 142.976ZM74.067 148.735V155.17H75.575V147.331L75.51 147.292L74.067 148.735ZM88.874 146.356V147.591H95.192V146.356H88.874ZM88.276 149.684V150.997H96.31V149.684H88.276ZM91.825 150.23V153.558C91.825 153.727 91.747 153.766 91.5 153.779C91.266 153.792 90.317 153.779 89.537 153.753C89.745 154.156 89.979 154.754 90.044 155.183C91.175 155.183 92.02 155.196 92.605 154.975C93.216 154.767 93.398 154.377 93.398 153.584V150.23H91.825ZM95.829 149.684V149.905C95.413 150.789 94.737 151.842 94.178 152.531L95.439 153.116C96.089 152.336 96.856 151.153 97.467 150.074L96.336 149.606L96.089 149.684H95.829ZM94.711 146.356V146.668C94.23 147.305 93.138 148.254 92.137 148.774C92.371 148.982 92.774 149.411 92.956 149.684C94.256 149.047 95.556 148.02 96.466 147.071L95.465 146.278L95.127 146.356H94.711ZM91.097 142.963V145.251H92.722V142.963H91.097ZM87.171 144.302V145.745H97.441V144.302H87.171ZM86.43 144.302V147.851C86.43 149.762 86.352 152.492 85.26 154.351C85.624 154.52 86.313 154.962 86.573 155.222C87.756 153.194 87.951 149.97 87.951 147.851V144.302H86.43ZM89.797 148.696C91.045 149.229 92.748 150.074 93.58 150.62L94.581 149.619C93.684 149.073 91.955 148.28 90.746 147.799L89.797 148.696ZM100.314 144.64H101.523V146.031H100.314V144.64ZM98.949 143.392V147.292H102.966V143.392H98.949ZM98.39 147.89V149.229H103.421V147.89H98.39ZM99.482 148.527C99.3 149.567 99.014 150.88 98.754 151.751L100.145 151.985C100.379 151.075 100.678 149.671 100.899 148.527H99.482ZM99.885 150.022L99.586 151.309H102.069V150.022H99.885ZM101.51 150.022V150.23C101.393 152.57 101.25 153.506 101.016 153.74C100.899 153.857 100.769 153.883 100.574 153.883C100.34 153.883 99.833 153.883 99.287 153.831C99.534 154.195 99.69 154.767 99.716 155.17C100.314 155.183 100.886 155.183 101.224 155.144C101.627 155.092 101.913 154.988 102.186 154.676C102.55 154.26 102.719 153.155 102.888 150.581C102.901 150.386 102.914 150.022 102.914 150.022H101.51ZM106.866 143.665V144.9H110.168V143.665H106.866ZM104.344 145.472V146.694H109.739V145.472H104.344ZM106.164 142.963V146.031H107.659V142.963H106.164ZM103.707 145.472V148.852C103.707 150.516 103.603 152.778 102.511 154.377C102.836 154.52 103.434 154.962 103.681 155.209C104.89 153.48 105.098 150.75 105.098 148.852V145.472H103.707ZM105.202 147.578L105.332 148.618L108.881 148.28L108.751 147.266L105.202 147.578ZM106.255 146.59V148.579C106.255 149.671 106.528 149.996 107.75 149.996C107.997 149.996 108.764 149.996 109.011 149.996C109.869 149.996 110.207 149.71 110.337 148.709C109.986 148.631 109.466 148.462 109.193 148.28C109.154 148.826 109.102 148.917 108.855 148.917C108.686 148.917 108.101 148.917 107.971 148.917C107.659 148.917 107.62 148.891 107.62 148.579V146.59H106.255ZM109.336 145.472V145.654C109.284 146.382 109.167 147.318 109.076 147.903L110.246 148.176C110.402 147.526 110.597 146.512 110.727 145.628L109.752 145.42L109.531 145.472H109.336ZM105.657 150.425C105.592 152.167 105.41 153.376 104.11 154.117C104.422 154.364 104.812 154.897 104.981 155.248C106.58 154.273 106.879 152.635 106.957 150.425H105.657ZM107.594 150.425V153.493C107.594 154.247 107.646 154.468 107.88 154.702C108.088 154.923 108.426 155.001 108.764 155.001C108.946 155.001 109.284 155.001 109.492 155.001C109.752 155.001 110.038 154.936 110.207 154.832C110.428 154.676 110.571 154.507 110.662 154.221C110.74 153.961 110.818 153.337 110.831 152.713C110.48 152.596 109.999 152.336 109.752 152.115C109.752 152.648 109.739 153.116 109.713 153.311C109.687 153.428 109.648 153.519 109.596 153.558C109.557 153.597 109.466 153.623 109.401 153.623C109.323 153.623 109.206 153.623 109.154 153.623C109.076 153.623 108.998 153.597 108.959 153.545C108.933 153.519 108.92 153.428 108.92 153.363V150.425H107.594Z" fill="#F2F4F7"/>
<rect x="135.5" y="131.5" width="169" height="36" rx="18" fill="#F2F4F7"/>
<path d="M155.899 150.438V151.881H163.868V150.438H155.899ZM156.913 147.162V148.566H161.879V147.162H156.913ZM159.214 149.359V153.48C159.214 153.649 159.149 153.688 158.941 153.701C158.733 153.701 157.966 153.701 157.303 153.675C157.498 154.104 157.68 154.715 157.745 155.17C158.785 155.17 159.552 155.157 160.098 154.936C160.657 154.702 160.787 154.299 160.787 153.519V149.359H159.214ZM161.489 147.162V147.448C161.112 148.046 160.228 148.995 159.487 149.528C159.721 149.736 160.124 150.165 160.319 150.438C161.307 149.775 162.386 148.748 163.179 147.851L162.204 147.071L161.879 147.162H161.489ZM152.09 144.653V146.148H163.686V144.653H152.09ZM156.159 142.95C155.483 145.589 154.001 148.514 151.635 150.061C151.882 150.451 152.246 151.166 152.415 151.595C155.21 149.684 156.848 146.512 157.81 143.353L156.159 142.95ZM153.559 148.384V155.157H155.145V148.384H153.559ZM167.352 143.691V145.277H171.031V143.691H167.352ZM170.264 143.691C170.264 146.343 170.836 152.154 175.789 155.131C176.062 154.741 176.686 154.052 177.05 153.766C172.227 150.945 171.876 146.161 171.876 143.691H170.264ZM169.705 146.538C169.003 149.983 167.443 152.505 164.726 153.883C165.129 154.169 165.857 154.819 166.143 155.157C168.86 153.519 170.589 150.724 171.499 146.863L169.705 146.538ZM178.308 154V144.545H179.979V148.082H180.048C180.135 147.909 180.256 147.726 180.413 147.532C180.57 147.335 180.782 147.168 181.05 147.029C181.318 146.888 181.66 146.817 182.075 146.817C182.623 146.817 183.117 146.957 183.557 147.237C184 147.514 184.351 147.925 184.61 148.469C184.871 149.011 185.002 149.676 185.002 150.464C185.002 151.242 184.874 151.904 184.619 152.449C184.363 152.994 184.016 153.409 183.575 153.695C183.135 153.982 182.637 154.125 182.08 154.125C181.673 154.125 181.336 154.057 181.069 153.922C180.801 153.786 180.585 153.623 180.422 153.432C180.262 153.238 180.138 153.055 180.048 152.883H179.951V154H178.308ZM179.947 150.455C179.947 150.913 180.011 151.315 180.141 151.659C180.273 152.004 180.462 152.273 180.709 152.467C180.958 152.658 181.259 152.754 181.613 152.754C181.983 152.754 182.292 152.655 182.541 152.458C182.791 152.258 182.978 151.986 183.105 151.641C183.234 151.293 183.298 150.898 183.298 150.455C183.298 150.014 183.235 149.624 183.109 149.282C182.983 148.94 182.795 148.673 182.546 148.479C182.297 148.285 181.986 148.188 181.613 148.188C181.256 148.188 180.953 148.282 180.704 148.469C180.455 148.657 180.265 148.92 180.136 149.259C180.01 149.597 179.947 149.996 179.947 150.455ZM189.562 154.138C188.851 154.138 188.237 153.991 187.72 153.695C187.206 153.397 186.81 152.975 186.533 152.43C186.256 151.883 186.118 151.238 186.118 150.496C186.118 149.767 186.256 149.127 186.533 148.576C186.813 148.022 187.204 147.591 187.706 147.283C188.208 146.972 188.797 146.817 189.474 146.817C189.911 146.817 190.324 146.888 190.711 147.029C191.102 147.168 191.447 147.383 191.745 147.675C192.047 147.968 192.284 148.34 192.456 148.793C192.629 149.242 192.715 149.777 192.715 150.399V150.912H186.903V149.785H191.113C191.11 149.465 191.041 149.18 190.905 148.931C190.77 148.679 190.581 148.48 190.337 148.336C190.097 148.191 189.817 148.119 189.497 148.119C189.156 148.119 188.856 148.202 188.597 148.368C188.338 148.531 188.137 148.746 187.992 149.014C187.851 149.279 187.778 149.57 187.775 149.887V150.87C187.775 151.282 187.851 151.636 188.001 151.932C188.152 152.224 188.363 152.449 188.634 152.606C188.905 152.76 189.222 152.837 189.585 152.837C189.828 152.837 190.048 152.803 190.245 152.735C190.442 152.664 190.613 152.561 190.758 152.426C190.902 152.29 191.011 152.123 191.085 151.923L192.646 152.098C192.547 152.51 192.359 152.871 192.082 153.178C191.809 153.483 191.458 153.72 191.03 153.889C190.602 154.055 190.113 154.138 189.562 154.138ZM196.169 154.143C195.72 154.143 195.315 154.063 194.955 153.903C194.598 153.74 194.315 153.5 194.106 153.183C193.899 152.866 193.796 152.475 193.796 152.01C193.796 151.61 193.87 151.279 194.018 151.018C194.166 150.756 194.367 150.547 194.623 150.39C194.878 150.233 195.166 150.114 195.486 150.034C195.809 149.951 196.143 149.891 196.488 149.854C196.903 149.811 197.24 149.773 197.499 149.739C197.757 149.702 197.945 149.647 198.062 149.573C198.182 149.496 198.242 149.377 198.242 149.217V149.19C198.242 148.842 198.139 148.573 197.933 148.382C197.726 148.191 197.429 148.096 197.042 148.096C196.632 148.096 196.308 148.185 196.068 148.363C195.831 148.542 195.671 148.753 195.587 148.996L194.027 148.774C194.15 148.343 194.353 147.983 194.636 147.694C194.92 147.402 195.266 147.183 195.675 147.038C196.085 146.891 196.537 146.817 197.032 146.817C197.374 146.817 197.714 146.857 198.053 146.937C198.391 147.017 198.701 147.149 198.981 147.334C199.261 147.515 199.485 147.763 199.655 148.077C199.827 148.391 199.913 148.783 199.913 149.254V154H198.307V153.026H198.251C198.15 153.223 198.007 153.408 197.822 153.58C197.64 153.749 197.411 153.886 197.134 153.991C196.86 154.092 196.538 154.143 196.169 154.143ZM196.603 152.915C196.939 152.915 197.229 152.849 197.476 152.717C197.722 152.581 197.911 152.403 198.043 152.181C198.179 151.96 198.247 151.718 198.247 151.456V150.621C198.194 150.664 198.105 150.704 197.979 150.741C197.856 150.778 197.717 150.81 197.563 150.838C197.409 150.865 197.257 150.89 197.106 150.912C196.956 150.933 196.825 150.952 196.714 150.967C196.465 151.001 196.241 151.056 196.045 151.133C195.848 151.21 195.692 151.318 195.578 151.456C195.464 151.592 195.407 151.767 195.407 151.983C195.407 152.29 195.52 152.523 195.744 152.68C195.969 152.837 196.255 152.915 196.603 152.915ZM203.265 149.845V154H201.594V146.909H203.191V148.114H203.274C203.437 147.717 203.697 147.402 204.054 147.168C204.414 146.934 204.859 146.817 205.388 146.817C205.878 146.817 206.304 146.921 206.667 147.131C207.033 147.34 207.316 147.643 207.516 148.04C207.72 148.437 207.82 148.919 207.817 149.485V154H206.145V149.744C206.145 149.27 206.022 148.899 205.776 148.631C205.533 148.363 205.196 148.229 204.765 148.229C204.473 148.229 204.213 148.294 203.985 148.423C203.76 148.549 203.583 148.733 203.454 148.973C203.328 149.213 203.265 149.504 203.265 149.845ZM213.107 146.909V148.202H208.915V146.909H213.107ZM209.963 154V146.24C209.963 145.763 210.062 145.366 210.259 145.049C210.459 144.732 210.726 144.495 211.062 144.338C211.397 144.181 211.77 144.102 212.179 144.102C212.468 144.102 212.725 144.125 212.95 144.172C213.175 144.218 213.341 144.259 213.449 144.296L213.116 145.589C213.045 145.567 212.956 145.546 212.848 145.524C212.741 145.5 212.621 145.487 212.488 145.487C212.178 145.487 211.958 145.563 211.828 145.713C211.702 145.861 211.639 146.074 211.639 146.35V154H209.963ZM218.935 151.018V146.909H220.606V154H218.986V152.74H218.912C218.752 153.137 218.489 153.461 218.123 153.714C217.76 153.966 217.312 154.092 216.779 154.092C216.315 154.092 215.904 153.989 215.547 153.783C215.193 153.574 214.916 153.271 214.716 152.874C214.516 152.473 214.416 151.99 214.416 151.424V146.909H216.087V151.165C216.087 151.615 216.21 151.972 216.456 152.237C216.702 152.501 217.026 152.634 217.426 152.634C217.672 152.634 217.91 152.574 218.141 152.453C218.372 152.333 218.561 152.155 218.709 151.918C218.86 151.678 218.935 151.378 218.935 151.018ZM223.996 149.845V154H222.325V146.909H223.922V148.114H224.005C224.168 147.717 224.429 147.402 224.786 147.168C225.146 146.934 225.59 146.817 226.12 146.817C226.609 146.817 227.035 146.921 227.398 147.131C227.765 147.34 228.048 147.643 228.248 148.04C228.451 148.437 228.551 148.919 228.548 149.485V154H226.877V149.744C226.877 149.27 226.754 148.899 226.508 148.631C226.264 148.363 225.927 148.229 225.496 148.229C225.204 148.229 224.944 148.294 224.716 148.423C224.492 148.549 224.315 148.733 224.185 148.973C224.059 149.213 223.996 149.504 223.996 149.845ZM232.292 144.545L232.14 151.221H230.653L230.505 144.545H232.292ZM231.396 154.102C231.116 154.102 230.876 154.003 230.676 153.806C230.479 153.609 230.381 153.369 230.381 153.086C230.381 152.809 230.479 152.572 230.676 152.375C230.876 152.178 231.116 152.08 231.396 152.08C231.67 152.08 231.907 152.178 232.107 152.375C232.31 152.572 232.412 152.809 232.412 153.086C232.412 153.274 232.364 153.444 232.269 153.598C232.177 153.752 232.053 153.875 231.9 153.968C231.749 154.057 231.581 154.102 231.396 154.102ZM239.888 147.695H246.31V149.333H239.888V147.695ZM238.588 146.733V150.295H247.688V146.733H238.588ZM240.824 145.251V146.265H245.413V145.251H240.824ZM242.423 147.045V149.788H243.684V147.045H242.423ZM243.047 144.172C244.308 145.342 246.609 146.551 248.416 147.162C248.65 146.759 248.988 146.226 249.326 145.875C247.311 145.368 245.205 144.341 243.723 142.963H242.241C241.175 144.12 239.043 145.342 236.911 145.979C237.184 146.304 237.548 146.863 237.717 147.214C239.771 146.499 241.89 145.29 243.047 144.172ZM240.343 147.981C240.564 148.436 240.746 149.034 240.798 149.424L241.942 149.086C241.864 148.696 241.656 148.124 241.422 147.682L240.343 147.981ZM244.646 147.63C244.542 148.059 244.295 148.696 244.113 149.125L245.179 149.411C245.387 149.047 245.647 148.501 245.933 147.942L244.646 147.63ZM239.303 150.711V155.17H240.837V151.725H245.4V155.131H246.999V150.711H239.303ZM240.187 152.245V153.272H246.063V152.245H240.187ZM240.187 153.805V154.819H246.063V153.805H240.187ZM253.499 144.588H258.777V145.42H253.499V144.588ZM251.939 143.379V146.642H260.441V143.379H251.939ZM252.901 149.736H259.284V150.282H252.901V149.736ZM252.901 151.283H259.284V151.842H252.901V151.283ZM252.901 148.189H259.284V148.735H252.901V148.189ZM251.341 147.123V152.895H260.909V147.123H251.341ZM253.863 152.635C253.044 153.142 251.38 153.753 250.015 154.052C250.392 154.351 250.912 154.845 251.198 155.17C252.524 154.858 254.214 154.221 255.254 153.61L253.863 152.635ZM256.723 153.688C258.114 154.078 259.908 154.728 260.922 155.196L262.287 154.091C261.208 153.675 259.466 153.064 258.088 152.7L256.723 153.688ZM268.397 144.718L268.514 145.953L274.936 145.29L274.832 144.068L268.397 144.718ZM268.306 150.49L268.41 151.751L275.118 151.062L275.001 149.84L268.306 150.49ZM269.567 142.963C269.853 146.265 271.829 149.008 273.662 149.008C274.546 149.021 274.962 148.735 275.183 147.461C274.845 147.344 274.429 147.123 274.156 146.863C274.091 147.487 274.026 147.695 273.753 147.695C272.765 147.695 271.166 145.446 270.958 142.963H269.567ZM269.606 148.761C269.853 152.258 271.66 155.157 273.675 155.157C274.611 155.157 275.04 154.845 275.261 153.454C274.91 153.337 274.481 153.103 274.195 152.83C274.13 153.558 274.039 153.805 273.766 153.805C272.674 153.831 271.192 151.439 271.023 148.761H269.606ZM273.155 145.485C272.141 146.616 270.048 147.383 267.994 147.786C268.267 148.059 268.696 148.631 268.878 148.917C270.958 148.358 273.207 147.409 274.442 145.966L273.155 145.485ZM273.259 151.244C272.206 152.57 269.97 153.441 267.721 153.883C267.981 154.169 268.41 154.806 268.579 155.118C270.919 154.507 273.311 153.428 274.624 151.738L273.259 151.244ZM271.907 143.717C272.44 143.899 273.129 144.211 273.467 144.458L274.182 143.652C273.818 143.405 273.116 143.132 272.596 142.976L271.907 143.717ZM271.66 149.398C272.193 149.619 272.869 149.97 273.207 150.243L274.078 149.45C273.701 149.19 273.012 148.865 272.479 148.683L271.66 149.398ZM263.925 146.2V147.5H267.682V146.2H263.925ZM263.301 148.449V149.775H268.046V148.449H263.301ZM263.431 150.503C263.626 151.231 263.808 152.167 263.834 152.791L264.887 152.518C264.822 151.894 264.64 150.984 264.419 150.256L263.431 150.503ZM263.158 153.48L263.457 154.897C264.822 154.624 266.616 154.26 268.293 153.896L268.189 152.609C266.369 152.947 264.432 153.298 263.158 153.48ZM267.032 150.152C266.941 150.776 266.746 151.686 266.577 152.271L267.513 152.531C267.708 151.985 267.916 151.166 268.15 150.425L267.032 150.152ZM265.082 146.72V153.961L266.421 153.727V146.72H265.082ZM265.017 142.963C264.614 143.977 263.847 145.199 262.755 146.135C263.041 146.343 263.483 146.837 263.691 147.149C264.978 145.979 265.771 144.64 266.278 143.652V143.249H265.836V142.963H265.017ZM265.212 142.963V144.068H265.485C266.187 144.653 267.071 145.745 267.487 146.408L268.488 145.212C268.02 144.549 267.058 143.613 266.304 142.963H265.212ZM279.057 142.898C278.381 144.653 277.198 146.382 275.872 147.422C276.275 147.669 276.951 148.241 277.25 148.553C278.576 147.318 279.889 145.368 280.708 143.366L279.057 142.898ZM279.317 144.406L278.576 145.875H286.233V144.406H279.317ZM285.765 144.406V144.705C285.674 148.605 285.557 149.996 285.31 150.321C285.206 150.464 285.076 150.516 284.881 150.516C284.647 150.516 284.205 150.516 283.711 150.451C283.945 150.867 284.114 151.491 284.127 151.946C284.777 151.946 285.362 151.959 285.726 151.881C286.142 151.816 286.441 151.686 286.714 151.296C287.091 150.789 287.208 149.216 287.325 145.069C287.338 144.861 287.338 144.406 287.338 144.406H285.765ZM278.602 149.801V151.179H283.698V146.863H278.355V148.228H282.164V149.801H278.602ZM277.9 149.801V152.999C277.9 154.637 278.602 155.066 281.033 155.066C281.579 155.066 284.647 155.066 285.206 155.066C287.286 155.066 287.806 154.585 288.066 152.596C287.624 152.518 286.948 152.271 286.571 152.05C286.441 153.389 286.259 153.61 285.154 153.61C284.361 153.61 281.67 153.61 281.059 153.61C279.681 153.61 279.447 153.519 279.447 152.973V149.801H277.9Z" fill="#344054"/>
<rect x="135.5" y="131.5" width="169" height="36" rx="18" stroke="#D0D5DD"/>
<defs>
<clipPath id="clip0_1246_7744">
<rect width="18" height="18" fill="white" transform="translate(244 47)"/>
</clipPath>
</defs>
</svg>
