<svg width="351" height="176" viewBox="0 0 351 176" fill="none" xmlns="http://www.w3.org/2000/svg">
<rect width="351" height="176" rx="24" fill="#F9FAFB"/>
<path d="M31.84 42.22V44.32H43.24V42.22H31.84ZM36.24 33.56L35.26 35.18H40.9L41.38 33.56H36.24ZM38.74 39.88V48.2C38.74 48.46 38.64 48.52 38.36 48.52C38.04 48.54 37.04 48.54 36.08 48.5C36.38 49.16 36.68 50.14 36.76 50.82C38.26 50.82 39.32 50.78 40.06 50.4C40.84 50.04 41.02 49.38 41.02 48.24V39.88H38.74ZM36.72 32.06C35.56 33.8 33.4 35.62 31.02 36.64C31.48 36.98 32.18 37.68 32.52 38.1C34.98 36.88 37.44 34.84 39.04 32.66L36.72 32.06ZM32.8 45.52C33.62 46.4 34.5 47.64 34.84 48.46L36.82 47.28C36.42 46.46 35.46 45.3 34.64 44.46L32.8 45.52ZM35.1 35.98C36.12 36.6 37.3 37.54 37.82 38.22L39.08 37C38.52 36.32 37.3 35.44 36.28 34.88L35.1 35.98ZM32.84 37.46C33.8 38.16 34.9 39.2 35.4 39.92L36.82 38.8C36.3 38.06 35.16 37.08 34.18 36.42L32.84 37.46ZM24.6 41.94V44H29.9V41.94H24.6ZM29.02 32.02V50.8H31.24V32.02H29.02ZM25.6 42.8V43.94C25.6 45.38 25.46 47.96 24.38 49.7C24.9 49.92 25.76 50.48 26.14 50.84C27.48 48.8 27.68 45.68 27.68 44.02V42.8H25.6ZM40.54 33.56V33.9C39.22 37.36 35.6 39.66 31.68 40.6C32.08 41.02 32.62 41.8 32.86 42.32C37.24 41.06 41.12 38.62 42.82 34.18L41.36 33.48L40.96 33.56H40.54ZM25.42 32.96V39.64H30.26V37.5H27.48V32.96H25.42ZM56.74 35.68V37.88H63.38V35.68H56.74ZM56.94 32C56.52 35.6 55.7 39.08 54.16 41.24C54.66 41.64 55.54 42.54 55.86 42.98C57.62 40.46 58.66 36.46 59.24 32.34L56.94 32ZM60.18 36.96C59.68 42.74 58.26 46.74 54.3 48.92C54.7 49.38 55.38 50.38 55.58 50.88C60.02 48.18 61.7 43.76 62.4 37.14L60.18 36.96ZM58 37.52L55.96 37.8C56.78 43.72 58.28 48.42 61.92 50.84C62.26 50.26 62.98 49.36 63.5 48.94C60.16 46.96 58.68 42.58 58 37.52ZM49 32.02V42.7H51.06V32.02H49ZM47.84 34.52H52.32V37.42H47.84V34.52ZM45.88 33V38.94H54.4V33H45.88ZM47.44 41.02H52.72V41.84H47.44V41.02ZM45.46 39.56V43.28H54.8V39.56H45.46ZM44.66 44.12L44.72 45.88C47.52 45.84 51.7 45.78 55.66 45.68L55.72 44C51.72 44.06 47.46 44.12 44.66 44.12ZM48.52 42.86C47.74 44.4 46.6 46.38 45.76 47.64L47.7 48.12C48.5 46.86 49.64 44.94 50.5 43.32L48.52 42.86ZM47.3 47.64C49.54 48.46 51.86 49.64 53.18 50.58L54.66 49.12C53.22 48.2 50.74 47.04 48.44 46.26L47.3 47.64ZM51.94 44.96C51.18 47.7 49.16 48.68 45.12 49.04C45.46 49.5 45.84 50.26 45.96 50.88C50.72 50.1 53.12 48.74 53.94 45.18L51.94 44.96ZM44.6 35.1V36.82H46.62V36.68H53.42V36.82H55.72V35.1H53.42V35.24H46.62V35.1H44.6ZM75.6 32.28V36.98H78.02V32.28H75.6ZM70.88 35.64V37.9H83.06V35.64H70.88ZM72.26 39.2C72.9 41.78 73.4 45.1 73.48 47.06L75.84 46.56C75.72 44.6 75.1 41.36 74.42 38.82L72.26 39.2ZM79.02 38.7C78.64 41.62 77.8 45.52 77 47.98L79.16 48.44C79.98 46.08 80.96 42.36 81.62 39.12L79.02 38.7ZM70.46 47.68V49.96H83.46V47.68H70.46ZM69.08 32.06C68 34.9 66.14 37.72 64.24 39.48C64.64 40.08 65.3 41.4 65.5 41.98C67.76 39.74 69.98 36.18 71.34 32.8L69.08 32.06ZM67.16 37.6V50.74H69.44V35.34L69.42 35.32L67.16 37.6ZM94.5 41.48V50.78H96.68V43.64H100.4V50.7H102.68V41.48H94.5ZM97.16 32.04V42.06H99.5V32.04H97.16ZM98.56 36.16V38.38H103.38V36.16H98.56ZM95.64 47.84V50.02H101.46V47.84H95.64ZM87.1 34.24H91.96V38.6H87.1V34.24ZM85.32 32.62V40.22H93.82V32.62H85.32ZM87.06 35.1C87.36 36.02 87.6 37.22 87.64 38.02L88.68 37.68C88.62 36.92 88.36 35.72 88.04 34.8L87.06 35.1ZM87.54 46.56C87.76 47.68 87.92 49.12 87.88 50.08L89.42 49.9C89.42 48.94 89.26 47.5 89 46.38L87.54 46.56ZM89.54 46.48C89.92 47.54 90.28 48.94 90.36 49.84L91.84 49.52C91.74 48.62 91.36 47.26 90.96 46.22L89.54 46.48ZM91.5 46.3C92.1 47.3 92.72 48.64 92.96 49.52L94.46 48.9C94.22 48.02 93.58 46.74 92.92 45.78L91.5 46.3ZM85.8 46.44C85.6 47.76 85.16 49.16 84.42 50L85.98 50.8C86.8 49.88 87.16 48.36 87.4 46.92L85.8 46.44ZM90.98 34.78C90.82 35.62 90.46 36.9 90.18 37.72L91.06 38.04C91.4 37.32 91.8 36.16 92.18 35.2L90.98 34.78ZM84.84 43.96L84.92 45.98C87.36 45.86 90.78 45.7 94.04 45.5L94.1 43.64C90.72 43.78 87.18 43.9 84.84 43.96ZM85.34 41.08V42.9H93.76V41.08H85.34ZM88.76 33.44V39.48H88.44V44.7H90.54V39.48H90.22V33.44H88.76ZM113.16 33.36V35.12H123.08V33.36H113.16ZM112.98 44.72V46.48H123.36V44.72H112.98ZM117.02 32.02V42.82H119.06V32.02H117.02ZM115.38 39.16H120.74V39.94H115.38V39.16ZM115.38 37.14H120.74V37.92H115.38V37.14ZM113.5 35.84V41.24H122.72V35.84H113.5ZM112.96 42.2L113.1 43.9C115.46 43.84 118.78 43.78 121.98 43.66L122.02 42.04C118.68 42.12 115.26 42.18 112.96 42.2ZM118.88 43.92V48.66C118.88 48.88 118.8 48.94 118.52 48.96C118.26 48.98 117.26 48.98 116.4 48.94C116.66 49.48 116.96 50.26 117.04 50.86C118.42 50.86 119.4 50.86 120.16 50.56C120.9 50.26 121.08 49.74 121.08 48.72V43.92H118.88ZM113.92 47.04C114.62 47.76 115.32 48.8 115.62 49.5L117.34 48.42C117 47.72 116.26 46.78 115.52 46.1L113.92 47.04ZM119.84 41.5C120.62 42.38 121.46 43.6 121.8 44.4L123.48 43.56C123.08 42.76 122.24 41.62 121.44 40.78L119.84 41.5ZM104.84 33.94V36H112.76V33.94H104.84ZM104.54 45.54V47.62H113.02V45.54H104.54ZM107.78 32.04V37.86H109.92V32.04H107.78ZM108.06 37.9V43.46H107.78V50.8H109.92V43.46H109.64V37.9H108.06ZM106.92 41.48H110.84V42.68H106.92V41.48ZM106.92 38.74H110.84V39.9H106.92V38.74ZM105.22 37.08V44.34H112.58V37.08H105.22ZM133.94 31.98C133.38 33.6 132.2 35.38 130.26 36.68C130.76 36.98 131.5 37.66 131.84 38.16C134.04 36.52 135.3 34.48 136.16 32.32L133.94 31.98ZM134.5 33.44L133.4 35.28H138.42V33.44H134.5ZM134.82 38.08C134.76 39.46 134.46 40.38 133.18 40.94C133.54 41.22 134 41.8 134.2 42.22C135.96 41.38 136.38 40.02 136.52 38.08H134.82ZM137.28 38.16V39.8C137.28 41.26 137.58 41.68 139.06 41.68C139.34 41.68 140.08 41.68 140.36 41.68C141.28 41.68 141.76 41.4 141.94 40.52C141.46 40.44 140.78 40.2 140.46 39.96C140.42 40.14 140.34 40.2 140.1 40.2C139.96 40.2 139.46 40.2 139.34 40.2C139.04 40.2 139.02 40.16 139.02 39.8V38.16H137.28ZM130.68 44V45.98H143.14V44H130.68ZM138.12 44.66L136.04 44.88C136.94 48.12 138.56 50 142.1 50.74C142.38 50.14 142.96 49.2 143.46 48.76C140.42 48.3 138.82 46.94 138.12 44.66ZM133.56 36.72H131.56V43.38H133.56V38.6H140.96V36.72H133.56ZM140.44 36.72V43.34H142.48V36.72H140.44ZM137.64 33.44V33.84C137.34 34.72 136.68 36.16 136.08 37.06C136.56 37.3 137.26 37.74 137.7 38.06C138.44 37.08 139.4 35.54 139.98 34.32L138.46 33.36L138.12 33.44H137.64ZM135.78 42.36C135.54 46.02 134.98 48 129.78 49C130.22 49.44 130.76 50.3 130.96 50.86C136.76 49.52 137.66 46.88 137.96 42.36H135.78ZM124.4 42.08L124.94 44.38C126.7 43.88 128.9 43.24 130.96 42.6L130.64 40.44C128.38 41.08 126 41.72 124.4 42.08ZM124.72 35.82V38.02H130.84V35.82H124.72ZM126.84 32.04V48.26C126.84 48.54 126.74 48.6 126.5 48.6C126.26 48.62 125.56 48.62 124.84 48.58C125.12 49.24 125.4 50.22 125.46 50.82C126.76 50.82 127.62 50.74 128.22 50.36C128.84 50 129.04 49.38 129.04 48.26V32.04H126.84ZM147.92 42.58V44.64H161.48V42.58H147.92ZM145.22 35.28V37.44H158.46V35.28H145.22ZM151.12 38.96V41.02H160.2V38.96H151.12ZM160.56 42.58V42.92C160.3 46.56 159.96 48.08 159.56 48.48C159.36 48.66 159.16 48.7 158.82 48.7C158.42 48.72 157.58 48.7 156.7 48.6C157.08 49.2 157.36 50.14 157.38 50.8C158.42 50.82 159.38 50.82 159.94 50.76C160.6 50.68 161.08 50.5 161.56 49.98C162.2 49.3 162.56 47.56 162.88 43.5C162.92 43.2 162.96 42.58 162.96 42.58H160.56ZM156.3 45.34C156.8 46.18 157.32 47.34 157.5 48.06L159.24 47.42C159.04 46.7 158.5 45.58 157.96 44.76L156.3 45.34ZM147.46 32.86C148.16 33.68 148.96 34.84 149.28 35.58L151.58 34.64C151.18 33.88 150.32 32.78 149.62 32.02L147.46 32.86ZM150.26 45.88C150.58 47.2 150.78 48.92 150.72 50.02L152.78 49.74C152.78 48.62 152.58 46.94 152.2 45.64L150.26 45.88ZM153.28 45.72C153.72 46.86 154.14 48.36 154.26 49.34L156.2 48.84C156.04 47.88 155.6 46.42 155.12 45.3L153.28 45.72ZM147.6 45.22C147.26 46.78 146.56 48.4 145.56 49.4L147.4 50.72C148.58 49.48 149.2 47.6 149.6 45.88L147.6 45.22ZM153.62 32C152.28 37.06 149.38 42.12 144.28 44.68C144.68 45.2 145.28 46.16 145.56 46.76C151.24 43.7 154.3 38.32 156.08 32.58L153.62 32ZM158 35.28C157.78 36.62 157.42 38.28 157.12 39.38L159.2 39.7C159.54 38.54 159.92 36.78 160.2 35.28H158ZM159.3 38.96C159.1 40.28 158.76 41.9 158.44 43.02L160.54 43.3C160.86 42.16 161.22 40.42 161.5 38.96H159.3ZM175.179 39.0994C175.061 38.7159 174.897 38.3726 174.689 38.0696C174.485 37.7618 174.239 37.4991 173.95 37.2812C173.666 37.0634 173.339 36.9001 172.97 36.7912C172.601 36.6776 172.198 36.6207 171.763 36.6207C170.982 36.6207 170.286 36.8172 169.675 37.2102C169.064 37.6032 168.583 38.1809 168.233 38.9432C167.887 39.7008 167.714 40.6241 167.714 41.7131C167.714 42.8116 167.887 43.742 168.233 44.5043C168.579 45.2666 169.059 45.8466 169.675 46.2443C170.29 46.6373 171.005 46.8338 171.82 46.8338C172.558 46.8338 173.197 46.6918 173.737 46.4077C174.282 46.1236 174.701 45.7211 174.994 45.2003C175.288 44.6747 175.435 44.0592 175.435 43.3537L176.031 43.446H172.082V41.3864H177.984V43.1335C177.984 44.3788 177.719 45.456 177.189 46.3651C176.659 47.2741 175.929 47.9749 175.001 48.4673C174.073 48.955 173.008 49.1989 171.805 49.1989C170.465 49.1989 169.289 48.8982 168.276 48.2969C167.267 47.6908 166.479 46.8314 165.911 45.7188C165.347 44.6013 165.065 43.2756 165.065 41.7415C165.065 40.5672 165.231 39.5185 165.562 38.5952C165.899 37.6719 166.367 36.8883 166.969 36.2443C167.57 35.5956 168.276 35.1032 169.085 34.767C169.895 34.4261 170.776 34.2557 171.727 34.2557C172.532 34.2557 173.283 34.3741 173.979 34.6108C174.675 34.8428 175.293 35.1742 175.832 35.6051C176.377 36.036 176.824 36.5473 177.175 37.1392C177.525 37.7311 177.755 38.3845 177.864 39.0994H175.179ZM181.951 49H179.138L184.259 34.4545H187.512L192.64 49H189.827L185.942 37.4375H185.829L181.951 49ZM182.043 43.2969H189.714V45.4134H182.043V43.2969ZM202.226 38.4531C202.16 37.8329 201.881 37.3499 201.388 37.0043C200.9 36.6586 200.266 36.4858 199.485 36.4858C198.935 36.4858 198.464 36.5687 198.071 36.7344C197.678 36.9001 197.378 37.125 197.169 37.4091C196.961 37.6932 196.855 38.0175 196.85 38.3821C196.85 38.6851 196.918 38.9479 197.056 39.1705C197.198 39.393 197.39 39.5824 197.631 39.7386C197.873 39.8902 198.14 40.018 198.434 40.1222C198.727 40.2263 199.023 40.3139 199.321 40.3849L200.685 40.7259C201.234 40.8537 201.762 41.0265 202.269 41.2443C202.78 41.4621 203.237 41.7367 203.64 42.0682C204.047 42.3996 204.369 42.7997 204.605 43.2685C204.842 43.7372 204.961 44.2865 204.961 44.9162C204.961 45.7685 204.743 46.5189 204.307 47.1676C203.872 47.8116 203.242 48.3158 202.418 48.6804C201.599 49.0402 200.607 49.2202 199.442 49.2202C198.31 49.2202 197.328 49.045 196.495 48.6946C195.666 48.3442 195.017 47.8329 194.549 47.1605C194.085 46.4882 193.834 45.669 193.796 44.7031H196.388C196.426 45.2098 196.582 45.6312 196.857 45.9673C197.132 46.3035 197.489 46.5545 197.929 46.7202C198.374 46.8859 198.872 46.9688 199.421 46.9688C199.994 46.9688 200.496 46.8835 200.926 46.7131C201.362 46.5379 201.703 46.2964 201.949 45.9886C202.195 45.6761 202.321 45.3116 202.326 44.8949C202.321 44.5161 202.21 44.2036 201.992 43.9574C201.774 43.7064 201.469 43.4981 201.076 43.3324C200.687 43.1619 200.233 43.0104 199.712 42.8778L198.057 42.4517C196.859 42.1439 195.912 41.6776 195.216 41.0526C194.525 40.4228 194.179 39.5871 194.179 38.5455C194.179 37.6884 194.411 36.938 194.875 36.294C195.344 35.6501 195.981 35.1506 196.786 34.7955C197.591 34.4356 198.502 34.2557 199.52 34.2557C200.552 34.2557 201.457 34.4356 202.233 34.7955C203.015 35.1506 203.628 35.6454 204.073 36.2798C204.518 36.9096 204.748 37.634 204.762 38.4531H202.226ZM207.31 49V34.4545H209.945V40.6122H216.685V34.4545H219.327V49H216.685V42.821H209.945V49H207.31Z" fill="#344054"/>
<g clip-path="url(#clip0_1246_7731)">
<path d="M233.25 38.25H234.75V39.75H233.25V38.25ZM233.25 41.25H234.75V45.75H233.25V41.25ZM234 34.5C229.86 34.5 226.5 37.86 226.5 42C226.5 46.14 229.86 49.5 234 49.5C238.14 49.5 241.5 46.14 241.5 42C241.5 37.86 238.14 34.5 234 34.5ZM234 48C230.693 48 228 45.3075 228 42C228 38.6925 230.693 36 234 36C237.307 36 240 38.6925 240 42C240 45.3075 237.307 48 234 48Z" fill="#898989"/>
</g>
<path d="M31.0046 92.0898C30.9549 91.6246 30.7454 91.2624 30.3761 91.0032C30.0103 90.744 29.5344 90.6143 28.9485 90.6143C28.5366 90.6143 28.1832 90.6765 27.8885 90.8008C27.5938 90.9251 27.3683 91.0937 27.212 91.3068C27.0558 91.5199 26.9759 91.7631 26.9723 92.0366C26.9723 92.2638 27.0238 92.4609 27.1268 92.6278C27.2333 92.7947 27.3771 92.9368 27.5582 93.054C27.7393 93.1676 27.94 93.2635 28.1602 93.3416C28.3803 93.4197 28.6023 93.4854 28.826 93.5387L29.8487 93.7944C30.2607 93.8903 30.6566 94.0199 31.0366 94.1832C31.4201 94.3466 31.7628 94.5526 32.0646 94.8011C32.37 95.0497 32.6115 95.3498 32.7891 95.7013C32.9666 96.0529 33.0554 96.4648 33.0554 96.9371C33.0554 97.5763 32.892 98.1392 32.5653 98.6257C32.2386 99.1087 31.7663 99.4869 31.1484 99.7603C30.5341 100.03 29.7901 100.165 28.9165 100.165C28.0678 100.165 27.331 100.034 26.706 99.771C26.0845 99.5082 25.598 99.1246 25.2464 98.6204C24.8984 98.1161 24.7102 97.5018 24.6818 96.7773H26.6261C26.6545 97.1573 26.7717 97.4734 26.9776 97.7255C27.1836 97.9776 27.4517 98.1658 27.782 98.2901C28.1158 98.4144 28.4886 98.4766 28.9006 98.4766C29.3303 98.4766 29.7067 98.4126 30.0298 98.2848C30.3565 98.1534 30.6122 97.9723 30.7969 97.7415C30.9815 97.5071 31.0756 97.2337 31.0792 96.9212C31.0756 96.6371 30.9922 96.4027 30.8288 96.218C30.6655 96.0298 30.4364 95.8736 30.1417 95.7493C29.8505 95.6214 29.5096 95.5078 29.119 95.4084L27.8778 95.0888C26.9794 94.858 26.2692 94.5082 25.7472 94.0394C25.2287 93.5671 24.9695 92.9403 24.9695 92.1591C24.9695 91.5163 25.1435 90.9535 25.4915 90.4705C25.843 89.9876 26.3207 89.6129 26.9244 89.3466C27.5281 89.0767 28.2116 88.9418 28.9751 88.9418C29.7493 88.9418 30.4276 89.0767 31.0099 89.3466C31.5959 89.6129 32.0558 89.984 32.3896 90.4599C32.7234 90.9322 32.8956 91.4755 32.9062 92.0898H31.0046ZM34.3378 90.7475V89.0909H43.0416V90.7475H39.6698V100H37.7096V90.7475H34.3378ZM44.7195 100V89.0909H51.8147V90.7475H46.6958V93.7092H51.4472V95.3658H46.6958V98.3434H51.8573V100H44.7195ZM53.8309 100V89.0909H57.9218C58.7599 89.0909 59.463 89.2472 60.0312 89.5597C60.6029 89.8722 61.0344 90.3018 61.3256 90.8487C61.6203 91.392 61.7677 92.0099 61.7677 92.7024C61.7677 93.402 61.6203 94.0234 61.3256 94.5668C61.0308 95.1101 60.5958 95.538 60.0205 95.8505C59.4452 96.1594 58.7368 96.3139 57.8952 96.3139H55.1839V94.6893H57.6288C58.1189 94.6893 58.5202 94.604 58.8327 94.4336C59.1452 94.2631 59.376 94.0288 59.5251 93.7305C59.6778 93.4322 59.7542 93.0895 59.7542 92.7024C59.7542 92.3153 59.6778 91.9744 59.5251 91.6797C59.376 91.3849 59.1434 91.1559 58.8273 90.9925C58.5148 90.8256 58.1118 90.7422 57.6182 90.7422H55.8071V100H53.8309ZM71.5355 89.0909V100H69.5593V91.0138H69.4954L66.9439 92.6438V90.8327L69.6552 89.0909H71.5355ZM74.914 100.117C74.5908 100.117 74.3138 100.004 74.083 99.7763C73.8522 99.549 73.7385 99.272 73.7421 98.9453C73.7385 98.6257 73.8522 98.3523 74.083 98.125C74.3138 97.8977 74.5908 97.7841 74.914 97.7841C75.2265 97.7841 75.4981 97.8977 75.729 98.125C75.9633 98.3523 76.0823 98.6257 76.0858 98.9453C76.0823 99.1619 76.0255 99.359 75.9154 99.5366C75.8089 99.7141 75.6668 99.8562 75.4893 99.9627C75.3153 100.066 75.1235 100.117 74.914 100.117ZM84.2497 93.115H81.0097V94.78H82.5697V98.635H84.2497V93.115ZM84.2497 97.945H82.7497C82.1197 98.5 81.3997 99.07 80.7997 99.49L81.6547 101.215C82.3597 100.54 82.9597 99.97 83.5297 99.37C84.4297 100.54 85.6597 100.99 87.4897 101.065C89.3647 101.14 92.6947 101.11 94.6147 101.02C94.6897 100.525 94.9597 99.73 95.1547 99.34C93.0247 99.505 89.3347 99.55 87.4747 99.475C85.9297 99.4 84.8347 98.965 84.2497 97.945ZM80.9197 88.51C81.6847 89.275 82.5847 90.37 82.9297 91.09L84.4597 90.085C84.0547 89.35 83.1247 88.33 82.3297 87.61L80.9197 88.51ZM85.1647 93.4V94.705H94.3597V93.4H85.1647ZM84.7147 95.71V97.045H94.8247V95.71H84.7147ZM87.1597 92.605V96.355H88.8547V92.605H87.1597ZM90.5947 92.605V96.355H92.3047V92.605H90.5947ZM85.5697 89.485V90.625H89.2747V87.73H84.9097V88.855H87.7597V89.485H85.5697ZM85.1197 89.485V90.955C85.1197 92.155 85.4947 92.5 86.8297 92.5C87.1147 92.5 88.1197 92.5 88.4047 92.5C89.3197 92.5 89.7247 92.215 89.8747 91.195C89.4697 91.12 88.8997 90.925 88.6297 90.73C88.5697 91.225 88.5097 91.315 88.2097 91.315C87.9847 91.315 87.2197 91.315 87.0547 91.315C86.6647 91.315 86.6047 91.255 86.6047 90.94V89.485H85.1197ZM90.5047 89.485V90.625H94.2397V87.73H89.7847V88.855H92.7097V89.485H90.5047ZM90.0547 89.485V90.94C90.0547 92.155 90.4297 92.5 91.7797 92.5C92.0647 92.5 93.1147 92.5 93.3997 92.5C94.3297 92.5 94.7347 92.215 94.8847 91.18C94.4797 91.09 93.9097 90.91 93.6397 90.715C93.5797 91.225 93.5197 91.315 93.2047 91.315C92.9797 91.315 92.1847 91.315 92.0047 91.315C91.6147 91.315 91.5397 91.255 91.5397 90.94V89.485H90.0547ZM90.3397 97.675C91.3297 98.185 92.3947 98.86 92.9497 99.34L94.8097 98.665C94.0597 98.155 92.7397 97.435 91.6597 96.94L90.3397 97.675ZM87.7147 96.94C87.0697 97.45 85.9597 97.93 84.9097 98.245C85.2847 98.485 85.9297 99.025 86.2147 99.325C87.2497 98.905 88.5097 98.215 89.2897 97.495L87.7147 96.94ZM107.14 88.99H108.07V89.98H107.14V88.99ZM104.86 88.99H105.775V89.98H104.86V88.99ZM102.625 88.99H103.495V89.98H102.625V88.99ZM101.23 87.805V91.165H109.54V87.805H101.23ZM101.41 91.765V93.04H109.315V91.765H101.41ZM100.66 93.73V95.08H109.975V93.73H100.66ZM100.795 96.205V97.54H109.81V96.205H100.795ZM101.185 98.23V99.535H109.45V98.23H101.185ZM104.395 90.85V94.33H106.105V90.85H104.395ZM104.395 96.865V101.425H106.105V96.865H104.395ZM102.43 95.17C102.595 95.59 102.76 96.145 102.82 96.49L104.35 96.13C104.275 95.785 104.065 95.26 103.9 94.87L102.43 95.17ZM106.825 94.66C106.705 95.095 106.465 95.725 106.255 96.175L107.59 96.535C107.83 96.16 108.145 95.62 108.475 95.05L106.825 94.66ZM95.7697 94.81L96.1747 96.535C97.4947 96.16 99.1447 95.68 100.69 95.2L100.45 93.58C98.7547 94.06 96.9697 94.54 95.7697 94.81ZM96.0097 90.115V91.765H100.6V90.115H96.0097ZM97.5997 87.28V99.445C97.5997 99.655 97.5247 99.7 97.3447 99.7C97.1647 99.715 96.6397 99.715 96.0997 99.685C96.3097 100.18 96.5197 100.915 96.5647 101.365C97.5397 101.365 98.1847 101.305 98.6347 101.02C99.0997 100.75 99.2497 100.285 99.2497 99.445V87.28H97.5997ZM117.34 88.27V89.59H124.78V88.27H117.34ZM117.205 96.79V98.11H124.99V96.79H117.205ZM120.235 87.265V95.365H121.765V87.265H120.235ZM119.005 92.62H123.025V93.205H119.005V92.62ZM119.005 91.105H123.025V91.69H119.005V91.105ZM117.595 90.13V94.18H124.51V90.13H117.595ZM117.19 94.9L117.295 96.175C119.065 96.13 121.555 96.085 123.955 95.995L123.985 94.78C121.48 94.84 118.915 94.885 117.19 94.9ZM121.63 96.19V99.745C121.63 99.91 121.57 99.955 121.36 99.97C121.165 99.985 120.415 99.985 119.77 99.955C119.965 100.36 120.19 100.945 120.25 101.395C121.285 101.395 122.02 101.395 122.59 101.17C123.145 100.945 123.28 100.555 123.28 99.79V96.19H121.63ZM117.91 98.53C118.435 99.07 118.96 99.85 119.185 100.375L120.475 99.565C120.22 99.04 119.665 98.335 119.11 97.825L117.91 98.53ZM122.35 94.375C122.935 95.035 123.565 95.95 123.82 96.55L125.08 95.92C124.78 95.32 124.15 94.465 123.55 93.835L122.35 94.375ZM111.1 88.705V90.25H117.04V88.705H111.1ZM110.875 97.405V98.965H117.235V97.405H110.875ZM113.305 87.28V91.645H114.91V87.28H113.305ZM113.515 91.675V95.845H113.305V101.35H114.91V95.845H114.7V91.675H113.515ZM112.66 94.36H115.6V95.26H112.66V94.36ZM112.66 92.305H115.6V93.175H112.66V92.305ZM111.385 91.06V96.505H116.905V91.06H111.385ZM132.925 87.235C132.505 88.45 131.62 89.785 130.165 90.76C130.54 90.985 131.095 91.495 131.35 91.87C133 90.64 133.945 89.11 134.59 87.49L132.925 87.235ZM133.345 88.33L132.52 89.71H136.285V88.33H133.345ZM133.585 91.81C133.54 92.845 133.315 93.535 132.355 93.955C132.625 94.165 132.97 94.6 133.12 94.915C134.44 94.285 134.755 93.265 134.86 91.81H133.585ZM135.43 91.87V93.1C135.43 94.195 135.655 94.51 136.765 94.51C136.975 94.51 137.53 94.51 137.74 94.51C138.43 94.51 138.79 94.3 138.925 93.64C138.565 93.58 138.055 93.4 137.815 93.22C137.785 93.355 137.725 93.4 137.545 93.4C137.44 93.4 137.065 93.4 136.975 93.4C136.75 93.4 136.735 93.37 136.735 93.1V91.87H135.43ZM130.48 96.25V97.735H139.825V96.25H130.48ZM136.06 96.745L134.5 96.91C135.175 99.34 136.39 100.75 139.045 101.305C139.255 100.855 139.69 100.15 140.065 99.82C137.785 99.475 136.585 98.455 136.06 96.745ZM132.64 90.79H131.14V95.785H132.64V92.2H138.19V90.79H132.64ZM137.8 90.79V95.755H139.33V90.79H137.8ZM135.7 88.33V88.63C135.475 89.29 134.98 90.37 134.53 91.045C134.89 91.225 135.415 91.555 135.745 91.795C136.3 91.06 137.02 89.905 137.455 88.99L136.315 88.27L136.06 88.33H135.7ZM134.305 95.02C134.125 97.765 133.705 99.25 129.805 100C130.135 100.33 130.54 100.975 130.69 101.395C135.04 100.39 135.715 98.41 135.94 95.02H134.305ZM125.77 94.81L126.175 96.535C127.495 96.16 129.145 95.68 130.69 95.2L130.45 93.58C128.755 94.06 126.97 94.54 125.77 94.81ZM126.01 90.115V91.765H130.6V90.115H126.01ZM127.6 87.28V99.445C127.6 99.655 127.525 99.7 127.345 99.7C127.165 99.715 126.64 99.715 126.1 99.685C126.31 100.18 126.52 100.915 126.565 101.365C127.54 101.365 128.185 101.305 128.635 101.02C129.1 100.75 129.25 100.285 129.25 99.445V87.28H127.6ZM141.16 89.665V91.39H154.765V89.665H141.16ZM146.17 93.34V95.05H151.915V93.34H146.17ZM151.255 93.34L151.24 93.625C151.03 97.33 150.745 99.04 150.295 99.43C150.1 99.595 149.89 99.61 149.56 99.61C149.125 99.61 148.06 99.61 147.025 99.52C147.37 100.015 147.64 100.765 147.67 101.29C148.675 101.32 149.68 101.335 150.25 101.29C150.94 101.215 151.42 101.065 151.87 100.585C152.47 99.925 152.785 98.23 153.055 94.12C153.1 93.88 153.115 93.34 153.115 93.34H151.255ZM145.495 90.685C145.345 94.105 145.255 97.915 140.89 99.94C141.37 100.315 141.91 100.975 142.18 101.455C146.89 99.085 147.295 94.705 147.52 90.685H145.495ZM146.95 87.19V90.34H148.81V87.19H146.95ZM166.165 88.255C166.855 88.75 167.695 89.5 168.085 90.01L169.345 88.93C168.925 88.435 168.04 87.73 167.365 87.265L166.165 88.255ZM156.235 89.815V91.57H169.735V89.815H156.235ZM156.79 93.295V95.035H163.285V93.295H156.79ZM159.07 94.285V99.37H160.87V94.285H159.07ZM156.22 99.115L156.73 100.93C158.68 100.525 161.335 99.97 163.81 99.43L163.675 97.825C160.975 98.335 158.035 98.845 156.22 99.115ZM163.6 87.325C163.615 94.27 164.56 101.365 167.815 101.365C169.24 101.365 169.855 100.66 170.125 97.795C169.615 97.615 168.955 97.18 168.55 96.76C168.46 98.65 168.295 99.475 167.965 99.475C166.54 99.475 165.4 93.49 165.535 87.325H163.6Z" fill="#344054"/>
<rect x="24" y="117" width="84" height="37" rx="18.5" fill="#344054"/>
<path d="M43.874 132.356V133.591H50.192V132.356H43.874ZM43.276 135.684V136.997H51.31V135.684H43.276ZM46.825 136.23V139.558C46.825 139.727 46.747 139.766 46.5 139.779C46.266 139.792 45.317 139.779 44.537 139.753C44.745 140.156 44.979 140.754 45.044 141.183C46.175 141.183 47.02 141.196 47.605 140.975C48.216 140.767 48.398 140.377 48.398 139.584V136.23H46.825ZM50.829 135.684V135.905C50.413 136.789 49.737 137.842 49.178 138.531L50.439 139.116C51.089 138.336 51.856 137.153 52.467 136.074L51.336 135.606L51.089 135.684H50.829ZM49.711 132.356V132.668C49.23 133.305 48.138 134.254 47.137 134.774C47.371 134.982 47.774 135.411 47.956 135.684C49.256 135.047 50.556 134.02 51.466 133.071L50.465 132.278L50.127 132.356H49.711ZM46.097 128.963V131.251H47.722V128.963H46.097ZM42.171 130.302V131.745H52.441V130.302H42.171ZM41.43 130.302V133.851C41.43 135.762 41.352 138.492 40.26 140.351C40.624 140.52 41.313 140.962 41.573 141.222C42.756 139.194 42.951 135.97 42.951 133.851V130.302H41.43ZM44.797 134.696C46.045 135.229 47.748 136.074 48.58 136.62L49.581 135.619C48.684 135.073 46.955 134.28 45.746 133.799L44.797 134.696ZM55.314 130.64H56.523V132.031H55.314V130.64ZM53.949 129.392V133.292H57.966V129.392H53.949ZM53.39 133.89V135.229H58.421V133.89H53.39ZM54.482 134.527C54.3 135.567 54.014 136.88 53.754 137.751L55.145 137.985C55.379 137.075 55.678 135.671 55.899 134.527H54.482ZM54.885 136.022L54.586 137.309H57.069V136.022H54.885ZM56.51 136.022V136.23C56.393 138.57 56.25 139.506 56.016 139.74C55.899 139.857 55.769 139.883 55.574 139.883C55.34 139.883 54.833 139.883 54.287 139.831C54.534 140.195 54.69 140.767 54.716 141.17C55.314 141.183 55.886 141.183 56.224 141.144C56.627 141.092 56.913 140.988 57.186 140.676C57.55 140.26 57.719 139.155 57.888 136.581C57.901 136.386 57.914 136.022 57.914 136.022H56.51ZM61.866 129.665V130.9H65.168V129.665H61.866ZM59.344 131.472V132.694H64.739V131.472H59.344ZM61.164 128.963V132.031H62.659V128.963H61.164ZM58.707 131.472V134.852C58.707 136.516 58.603 138.778 57.511 140.377C57.836 140.52 58.434 140.962 58.681 141.209C59.89 139.48 60.098 136.75 60.098 134.852V131.472H58.707ZM60.202 133.578L60.332 134.618L63.881 134.28L63.751 133.266L60.202 133.578ZM61.255 132.59V134.579C61.255 135.671 61.528 135.996 62.75 135.996C62.997 135.996 63.764 135.996 64.011 135.996C64.869 135.996 65.207 135.71 65.337 134.709C64.986 134.631 64.466 134.462 64.193 134.28C64.154 134.826 64.102 134.917 63.855 134.917C63.686 134.917 63.101 134.917 62.971 134.917C62.659 134.917 62.62 134.891 62.62 134.579V132.59H61.255ZM64.336 131.472V131.654C64.284 132.382 64.167 133.318 64.076 133.903L65.246 134.176C65.402 133.526 65.597 132.512 65.727 131.628L64.752 131.42L64.531 131.472H64.336ZM60.657 136.425C60.592 138.167 60.41 139.376 59.11 140.117C59.422 140.364 59.812 140.897 59.981 141.248C61.58 140.273 61.879 138.635 61.957 136.425H60.657ZM62.594 136.425V139.493C62.594 140.247 62.646 140.468 62.88 140.702C63.088 140.923 63.426 141.001 63.764 141.001C63.946 141.001 64.284 141.001 64.492 141.001C64.752 141.001 65.038 140.936 65.207 140.832C65.428 140.676 65.571 140.507 65.662 140.221C65.74 139.961 65.818 139.337 65.831 138.713C65.48 138.596 64.999 138.336 64.752 138.115C64.752 138.648 64.739 139.116 64.713 139.311C64.687 139.428 64.648 139.519 64.596 139.558C64.557 139.597 64.466 139.623 64.401 139.623C64.323 139.623 64.206 139.623 64.154 139.623C64.076 139.623 63.998 139.597 63.959 139.545C63.933 139.519 63.92 139.428 63.92 139.363V136.425H62.594ZM69.978 129.431V130.601H72.916V129.431H69.978ZM73.527 130.406V131.641H76.608V130.406H73.527ZM73.293 132.785V134.033H78.623V132.785H73.293ZM69.497 131.186V132.356H73.319V131.186H69.497ZM69.9 132.928V134.098H72.994V132.928H69.9ZM69.9 134.709V135.892H72.994V134.709H69.9ZM69.783 136.529V141.027H70.992V136.529H69.783ZM70.511 136.529V137.712H71.993V139.155H70.511V140.338H73.228V136.529H70.511ZM74.372 128.976V133.721H75.711V128.976H74.372ZM77.284 129.21C76.478 132.122 74.918 134.488 72.695 135.866C72.981 136.113 73.475 136.62 73.657 136.88C75.945 135.281 77.609 132.707 78.571 129.496L77.284 129.21ZM74.19 135.32V141.144H75.516V136.594H76.751V141.092H78.129V135.32H74.19ZM74.801 137.465V138.596H77.453V137.465H74.801ZM74.801 139.48V140.741H77.453V139.48H74.801ZM76.296 134.488C76.673 134.774 77.102 135.216 77.284 135.502L78.181 134.852C77.973 134.553 77.531 134.15 77.154 133.89L76.296 134.488ZM68.47 129.002C67.963 130.796 67.105 132.564 66.143 133.734C66.364 134.137 66.728 135.047 66.832 135.411C68.067 133.916 69.185 131.576 69.861 129.418L68.47 129.002ZM67.586 132.72V141.157H68.951V131.394L68.925 131.381L67.586 132.72ZM83.342 130.146V131.485H91.285V130.146H83.342ZM82.77 139.623V140.923H91.571V139.623H82.77ZM83.901 132.382V139.857H85.279V133.513H89.153V139.857H90.583V132.382H83.901ZM84.928 134.228V135.307H89.4V134.228H84.928ZM84.902 136.035V137.075H89.738V136.035H84.902ZM84.863 137.816V138.882H89.426V137.816H84.863ZM86.605 128.989C86.527 130.159 86.306 131.758 86.072 132.785L87.424 132.889C87.71 131.94 88.035 130.419 88.256 129.041L86.605 128.989ZM82.068 129.002C81.431 130.861 80.378 132.694 79.26 133.89C79.507 134.267 79.923 135.125 80.066 135.515C81.418 134.02 82.692 131.667 83.498 129.457L82.068 129.002ZM80.781 132.616V141.157H82.224V131.147V131.134L80.781 132.616Z" fill="#F2F4F7"/>
<rect x="116.5" y="117.5" width="169" height="36" rx="18" fill="#F2F4F7"/>
<path d="M133.308 140V130.545H134.979V134.082H135.048C135.135 133.909 135.256 133.726 135.413 133.532C135.57 133.335 135.782 133.168 136.05 133.029C136.318 132.888 136.66 132.817 137.075 132.817C137.623 132.817 138.117 132.957 138.557 133.237C139 133.514 139.351 133.925 139.61 134.469C139.871 135.011 140.002 135.676 140.002 136.464C140.002 137.242 139.874 137.904 139.619 138.449C139.363 138.994 139.016 139.409 138.575 139.695C138.135 139.982 137.637 140.125 137.08 140.125C136.673 140.125 136.336 140.057 136.069 139.922C135.801 139.786 135.585 139.623 135.422 139.432C135.262 139.238 135.138 139.055 135.048 138.883H134.951V140H133.308ZM134.947 136.455C134.947 136.913 135.011 137.315 135.141 137.659C135.273 138.004 135.462 138.273 135.709 138.467C135.958 138.658 136.259 138.754 136.613 138.754C136.983 138.754 137.292 138.655 137.541 138.458C137.791 138.258 137.978 137.986 138.105 137.641C138.234 137.293 138.298 136.898 138.298 136.455C138.298 136.014 138.235 135.624 138.109 135.282C137.983 134.94 137.795 134.673 137.546 134.479C137.297 134.285 136.986 134.188 136.613 134.188C136.256 134.188 135.953 134.282 135.704 134.469C135.455 134.657 135.265 134.92 135.136 135.259C135.01 135.597 134.947 135.996 134.947 136.455ZM144.562 140.138C143.851 140.138 143.237 139.991 142.72 139.695C142.206 139.397 141.81 138.975 141.533 138.43C141.256 137.883 141.118 137.238 141.118 136.496C141.118 135.767 141.256 135.127 141.533 134.576C141.813 134.022 142.204 133.591 142.706 133.283C143.208 132.972 143.797 132.817 144.474 132.817C144.911 132.817 145.324 132.888 145.711 133.029C146.102 133.168 146.447 133.383 146.745 133.675C147.047 133.968 147.284 134.34 147.456 134.793C147.629 135.242 147.715 135.777 147.715 136.399V136.912H141.903V135.785H146.113C146.11 135.465 146.041 135.18 145.905 134.931C145.77 134.679 145.581 134.48 145.337 134.336C145.097 134.191 144.817 134.119 144.497 134.119C144.156 134.119 143.856 134.202 143.597 134.368C143.338 134.531 143.137 134.746 142.992 135.014C142.851 135.279 142.778 135.57 142.775 135.887V136.87C142.775 137.282 142.851 137.636 143.001 137.932C143.152 138.224 143.363 138.449 143.634 138.606C143.905 138.76 144.222 138.837 144.585 138.837C144.828 138.837 145.048 138.803 145.245 138.735C145.442 138.664 145.613 138.561 145.758 138.426C145.902 138.29 146.011 138.123 146.085 137.923L147.646 138.098C147.547 138.51 147.359 138.871 147.082 139.178C146.809 139.483 146.458 139.72 146.03 139.889C145.602 140.055 145.113 140.138 144.562 140.138ZM151.169 140.143C150.72 140.143 150.315 140.063 149.955 139.903C149.598 139.74 149.315 139.5 149.106 139.183C148.899 138.866 148.796 138.475 148.796 138.01C148.796 137.61 148.87 137.279 149.018 137.018C149.166 136.756 149.367 136.547 149.623 136.39C149.878 136.233 150.166 136.114 150.486 136.034C150.809 135.951 151.143 135.891 151.488 135.854C151.903 135.811 152.24 135.773 152.499 135.739C152.757 135.702 152.945 135.647 153.062 135.573C153.182 135.496 153.242 135.377 153.242 135.217V135.19C153.242 134.842 153.139 134.573 152.933 134.382C152.726 134.191 152.429 134.096 152.042 134.096C151.632 134.096 151.308 134.185 151.068 134.363C150.831 134.542 150.671 134.753 150.587 134.996L149.027 134.774C149.15 134.343 149.353 133.983 149.636 133.694C149.92 133.402 150.266 133.183 150.675 133.038C151.085 132.891 151.537 132.817 152.032 132.817C152.374 132.817 152.714 132.857 153.053 132.937C153.391 133.017 153.701 133.149 153.981 133.334C154.261 133.515 154.485 133.763 154.655 134.077C154.827 134.391 154.913 134.783 154.913 135.254V140H153.307V139.026H153.251C153.15 139.223 153.007 139.408 152.822 139.58C152.64 139.749 152.411 139.886 152.134 139.991C151.86 140.092 151.538 140.143 151.169 140.143ZM151.603 138.915C151.939 138.915 152.229 138.849 152.476 138.717C152.722 138.581 152.911 138.403 153.043 138.181C153.179 137.96 153.247 137.718 153.247 137.456V136.621C153.194 136.664 153.105 136.704 152.979 136.741C152.856 136.778 152.717 136.81 152.563 136.838C152.409 136.865 152.257 136.89 152.106 136.912C151.956 136.933 151.825 136.952 151.714 136.967C151.465 137.001 151.241 137.056 151.045 137.133C150.848 137.21 150.692 137.318 150.578 137.456C150.464 137.592 150.407 137.767 150.407 137.983C150.407 138.29 150.52 138.523 150.744 138.68C150.969 138.837 151.255 138.915 151.603 138.915ZM158.265 135.845V140H156.594V132.909H158.191V134.114H158.274C158.437 133.717 158.697 133.402 159.054 133.168C159.414 132.934 159.859 132.817 160.388 132.817C160.878 132.817 161.304 132.921 161.667 133.131C162.033 133.34 162.316 133.643 162.516 134.04C162.72 134.437 162.82 134.919 162.817 135.485V140H161.145V135.744C161.145 135.27 161.022 134.899 160.776 134.631C160.533 134.363 160.196 134.229 159.765 134.229C159.473 134.229 159.213 134.294 158.985 134.423C158.76 134.549 158.583 134.733 158.454 134.973C158.328 135.213 158.265 135.504 158.265 135.845ZM168.107 132.909V134.202H163.915V132.909H168.107ZM164.963 140V132.24C164.963 131.763 165.062 131.366 165.259 131.049C165.459 130.732 165.726 130.495 166.062 130.338C166.397 130.181 166.77 130.102 167.179 130.102C167.468 130.102 167.725 130.125 167.95 130.172C168.175 130.218 168.341 130.259 168.449 130.296L168.116 131.589C168.045 131.567 167.956 131.546 167.848 131.524C167.741 131.5 167.621 131.487 167.488 131.487C167.178 131.487 166.958 131.563 166.828 131.713C166.702 131.861 166.639 132.074 166.639 132.35V140H164.963ZM173.935 137.018V132.909H175.606V140H173.986V138.74H173.912C173.752 139.137 173.489 139.461 173.123 139.714C172.76 139.966 172.312 140.092 171.779 140.092C171.315 140.092 170.904 139.989 170.547 139.783C170.193 139.574 169.916 139.271 169.716 138.874C169.516 138.473 169.416 137.99 169.416 137.424V132.909H171.087V137.165C171.087 137.615 171.21 137.972 171.456 138.237C171.702 138.501 172.026 138.634 172.426 138.634C172.672 138.634 172.91 138.574 173.141 138.453C173.372 138.333 173.561 138.155 173.709 137.918C173.86 137.678 173.935 137.378 173.935 137.018ZM178.996 135.845V140H177.325V132.909H178.922V134.114H179.005C179.168 133.717 179.429 133.402 179.786 133.168C180.146 132.934 180.59 132.817 181.12 132.817C181.609 132.817 182.035 132.921 182.398 133.131C182.765 133.34 183.048 133.643 183.248 134.04C183.451 134.437 183.551 134.919 183.548 135.485V140H181.877V135.744C181.877 135.27 181.754 134.899 181.508 134.631C181.264 134.363 180.927 134.229 180.496 134.229C180.204 134.229 179.944 134.294 179.716 134.423C179.492 134.549 179.315 134.733 179.185 134.973C179.059 135.213 178.996 135.504 178.996 135.845ZM187.292 130.545L187.14 137.221H185.653L185.505 130.545H187.292ZM186.396 140.102C186.116 140.102 185.876 140.003 185.676 139.806C185.479 139.609 185.381 139.369 185.381 139.086C185.381 138.809 185.479 138.572 185.676 138.375C185.876 138.178 186.116 138.08 186.396 138.08C186.67 138.08 186.907 138.178 187.107 138.375C187.31 138.572 187.412 138.809 187.412 139.086C187.412 139.274 187.364 139.444 187.269 139.598C187.177 139.752 187.053 139.875 186.9 139.968C186.749 140.057 186.581 140.102 186.396 140.102ZM194.888 133.695H201.31V135.333H194.888V133.695ZM193.588 132.733V136.295H202.688V132.733H193.588ZM195.824 131.251V132.265H200.413V131.251H195.824ZM197.423 133.045V135.788H198.684V133.045H197.423ZM198.047 130.172C199.308 131.342 201.609 132.551 203.416 133.162C203.65 132.759 203.988 132.226 204.326 131.875C202.311 131.368 200.205 130.341 198.723 128.963H197.241C196.175 130.12 194.043 131.342 191.911 131.979C192.184 132.304 192.548 132.863 192.717 133.214C194.771 132.499 196.89 131.29 198.047 130.172ZM195.343 133.981C195.564 134.436 195.746 135.034 195.798 135.424L196.942 135.086C196.864 134.696 196.656 134.124 196.422 133.682L195.343 133.981ZM199.646 133.63C199.542 134.059 199.295 134.696 199.113 135.125L200.179 135.411C200.387 135.047 200.647 134.501 200.933 133.942L199.646 133.63ZM194.303 136.711V141.17H195.837V137.725H200.4V141.131H201.999V136.711H194.303ZM195.187 138.245V139.272H201.063V138.245H195.187ZM195.187 139.805V140.819H201.063V139.805H195.187ZM208.499 130.588H213.777V131.42H208.499V130.588ZM206.939 129.379V132.642H215.441V129.379H206.939ZM207.901 135.736H214.284V136.282H207.901V135.736ZM207.901 137.283H214.284V137.842H207.901V137.283ZM207.901 134.189H214.284V134.735H207.901V134.189ZM206.341 133.123V138.895H215.909V133.123H206.341ZM208.863 138.635C208.044 139.142 206.38 139.753 205.015 140.052C205.392 140.351 205.912 140.845 206.198 141.17C207.524 140.858 209.214 140.221 210.254 139.61L208.863 138.635ZM211.723 139.688C213.114 140.078 214.908 140.728 215.922 141.196L217.287 140.091C216.208 139.675 214.466 139.064 213.088 138.7L211.723 139.688ZM223.397 130.718L223.514 131.953L229.936 131.29L229.832 130.068L223.397 130.718ZM223.306 136.49L223.41 137.751L230.118 137.062L230.001 135.84L223.306 136.49ZM224.567 128.963C224.853 132.265 226.829 135.008 228.662 135.008C229.546 135.021 229.962 134.735 230.183 133.461C229.845 133.344 229.429 133.123 229.156 132.863C229.091 133.487 229.026 133.695 228.753 133.695C227.765 133.695 226.166 131.446 225.958 128.963H224.567ZM224.606 134.761C224.853 138.258 226.66 141.157 228.675 141.157C229.611 141.157 230.04 140.845 230.261 139.454C229.91 139.337 229.481 139.103 229.195 138.83C229.13 139.558 229.039 139.805 228.766 139.805C227.674 139.831 226.192 137.439 226.023 134.761H224.606ZM228.155 131.485C227.141 132.616 225.048 133.383 222.994 133.786C223.267 134.059 223.696 134.631 223.878 134.917C225.958 134.358 228.207 133.409 229.442 131.966L228.155 131.485ZM228.259 137.244C227.206 138.57 224.97 139.441 222.721 139.883C222.981 140.169 223.41 140.806 223.579 141.118C225.919 140.507 228.311 139.428 229.624 137.738L228.259 137.244ZM226.907 129.717C227.44 129.899 228.129 130.211 228.467 130.458L229.182 129.652C228.818 129.405 228.116 129.132 227.596 128.976L226.907 129.717ZM226.66 135.398C227.193 135.619 227.869 135.97 228.207 136.243L229.078 135.45C228.701 135.19 228.012 134.865 227.479 134.683L226.66 135.398ZM218.925 132.2V133.5H222.682V132.2H218.925ZM218.301 134.449V135.775H223.046V134.449H218.301ZM218.431 136.503C218.626 137.231 218.808 138.167 218.834 138.791L219.887 138.518C219.822 137.894 219.64 136.984 219.419 136.256L218.431 136.503ZM218.158 139.48L218.457 140.897C219.822 140.624 221.616 140.26 223.293 139.896L223.189 138.609C221.369 138.947 219.432 139.298 218.158 139.48ZM222.032 136.152C221.941 136.776 221.746 137.686 221.577 138.271L222.513 138.531C222.708 137.985 222.916 137.166 223.15 136.425L222.032 136.152ZM220.082 132.72V139.961L221.421 139.727V132.72H220.082ZM220.017 128.963C219.614 129.977 218.847 131.199 217.755 132.135C218.041 132.343 218.483 132.837 218.691 133.149C219.978 131.979 220.771 130.64 221.278 129.652V129.249H220.836V128.963H220.017ZM220.212 128.963V130.068H220.485C221.187 130.653 222.071 131.745 222.487 132.408L223.488 131.212C223.02 130.549 222.058 129.613 221.304 128.963H220.212ZM234.057 128.898C233.381 130.653 232.198 132.382 230.872 133.422C231.275 133.669 231.951 134.241 232.25 134.553C233.576 133.318 234.889 131.368 235.708 129.366L234.057 128.898ZM234.317 130.406L233.576 131.875H241.233V130.406H234.317ZM240.765 130.406V130.705C240.674 134.605 240.557 135.996 240.31 136.321C240.206 136.464 240.076 136.516 239.881 136.516C239.647 136.516 239.205 136.516 238.711 136.451C238.945 136.867 239.114 137.491 239.127 137.946C239.777 137.946 240.362 137.959 240.726 137.881C241.142 137.816 241.441 137.686 241.714 137.296C242.091 136.789 242.208 135.216 242.325 131.069C242.338 130.861 242.338 130.406 242.338 130.406H240.765ZM233.602 135.801V137.179H238.698V132.863H233.355V134.228H237.164V135.801H233.602ZM232.9 135.801V138.999C232.9 140.637 233.602 141.066 236.033 141.066C236.579 141.066 239.647 141.066 240.206 141.066C242.286 141.066 242.806 140.585 243.066 138.596C242.624 138.518 241.948 138.271 241.571 138.05C241.441 139.389 241.259 139.61 240.154 139.61C239.361 139.61 236.67 139.61 236.059 139.61C234.681 139.61 234.447 139.519 234.447 138.973V135.801H232.9ZM250.19 131.927V133.201H254.675V131.927H250.19ZM247.954 139.454L248.474 140.975C249.709 140.702 251.308 140.351 252.816 140L252.699 138.648C250.957 138.96 249.137 139.285 247.954 139.454ZM249.306 129.548V139.818H250.827V129.548H249.306ZM250.19 129.548V130.887H253.843V134.28H250.19V135.619H255.377V129.548H250.19ZM252.907 134.735L251.607 134.943C252.166 137.816 253.18 140.026 255.273 141.131C255.494 140.728 255.949 140.117 256.287 139.818C254.376 138.973 253.375 137.049 252.907 134.735ZM254.779 135.71C254.298 136.36 253.453 137.179 252.829 137.686L253.804 138.44C254.454 137.972 255.286 137.244 256.001 136.568L254.779 135.71ZM244.574 129.522V141.183H246.03V130.913H247.824V129.522H244.574ZM247.395 129.522V129.99C247.187 130.822 246.745 132.668 246.368 133.838C247.135 134.722 247.33 135.528 247.33 136.139C247.33 136.503 247.265 136.763 247.096 136.88C246.979 136.958 246.849 136.984 246.706 136.997C246.537 136.997 246.355 136.997 246.108 136.971C246.329 137.361 246.446 137.972 246.459 138.362C246.771 138.375 247.109 138.375 247.356 138.336C247.655 138.297 247.915 138.206 248.123 138.05C248.552 137.751 248.747 137.205 248.747 136.334C248.747 135.58 248.578 134.683 247.72 133.669C248.123 132.655 248.591 131.212 248.942 130.081L247.889 129.47L247.668 129.522H247.395ZM259.524 132.889V134.371H266.713V132.889H259.524ZM263.112 136.009V137.465H267.506V136.009H263.112ZM262.293 133.747V139.831L263.931 140.026V133.747H262.293ZM259.186 135.099C258.965 137.335 258.315 139.142 256.911 140.182C257.275 140.416 257.938 140.975 258.198 141.248C259.68 139.974 260.486 137.907 260.824 135.268L259.186 135.099ZM260.447 136.724L259.173 137.153C260.291 140.429 262.319 141.04 265.322 141.04H268.598C268.663 140.572 268.923 139.818 269.144 139.454C268.273 139.48 266.102 139.48 265.413 139.48C263.099 139.48 261.279 139.116 260.447 136.724ZM262.267 128.976V131.355H263.931V128.976H262.267ZM257.535 130.289V133.552H259.069V131.771H267.103V133.552H268.715V130.289H257.535Z" fill="#344054"/>
<rect x="116.5" y="117.5" width="169" height="36" rx="18" stroke="#D0D5DD"/>
<defs>
<clipPath id="clip0_1246_7731">
<rect width="18" height="18" fill="white" transform="translate(225 33)"/>
</clipPath>
</defs>
</svg>
