<svg width="76" height="22" viewBox="0 0 76 22" fill="none" xmlns="http://www.w3.org/2000/svg">
<path d="M76 0.168169V21.4696H71.9097V12.5566H62.4378V21.4696H58.3433V0.168169H62.4378V9.18032H71.9097V0.168169H76ZM30.3636 0.168169H28.6149L19.7272 21.4696H24.0207L30.2662 6.08428H30.4737L36.6556 21.4696H41.0084L32.1123 0.168169H30.3636ZM40.3733 16.7867L40.4156 16.8946C40.7078 17.6707 42.4099 21.7456 48.0033 21.9655C56.9757 22.3148 56.8148 16.4202 56.8148 15.2085C56.8148 14.4108 56.3786 11.9918 53.7661 10.586C50.4041 8.77499 44.6795 8.99059 44.6795 5.50216C44.6795 4.43277 45.6152 2.93218 48.3887 2.87613C51.0732 2.82438 52.4831 4.60956 52.6737 5.60996L55.7435 4.69149C55.1973 3.47119 54.0329 0.0560564 48.2489 0.0560564C47.1142 0.0560564 46.081 0.185417 45.2045 0.48726C41.6097 1.72913 40.9576 4.55782 40.9618 5.96786C41.0126 14.1262 52.9066 12.009 52.7711 16.2219C52.7245 17.7656 51.2383 18.9859 48.2532 18.8565C45.1579 18.7272 44.1036 16.7911 43.604 15.6613L40.3775 16.7824L40.3733 16.7867ZM10.7168 3.24696C13.4013 3.18659 15.0018 4.60956 15.294 5.5539L18.5755 4.63975C18.0251 3.41513 16.1451 0.237162 10.8311 0C0.762159 0 0 9.60721 0 10.5817C0 20.7107 7.39295 21.8361 10.2637 21.9698C12.8254 22.0949 16.776 21.8232 18.7025 21.4265V9.18032H8.31601V12.5653H14.8028C14.8367 12.5653 14.8621 12.5911 14.8621 12.6256V18.559C14.8621 18.5935 14.8367 18.628 14.8028 18.6409C14.8028 18.6409 13.1938 18.9643 10.8777 18.8867C9.96735 18.8608 4.26809 18.628 4.26809 11.0216C4.26809 6.13171 6.66043 3.29008 10.7083 3.24696" fill="#EB5183"/>
</svg>
